<?xml version="1.0" encoding="UTF-8" standalone="no"?>
<!-- Created with Inkscape (http://www.inkscape.org/) -->

<svg
   xmlns:dc="http://purl.org/dc/elements/1.1/"
   xmlns:cc="http://creativecommons.org/ns#"
   xmlns:rdf="http://www.w3.org/1999/02/22-rdf-syntax-ns#"
   xmlns:svg="http://www.w3.org/2000/svg"
   xmlns="http://www.w3.org/2000/svg"
   xmlns:sodipodi="http://sodipodi.sourceforge.net/DTD/sodipodi-0.dtd"
   xmlns:inkscape="http://www.inkscape.org/namespaces/inkscape"
   width="17.054937mm"
   height="17.074869mm"
   viewBox="0 0 60.43088 60.501505"
   id="svg45767"
   version="1.1"
   inkscape:version="0.91 r13725"
   sodipodi:docname="icon-instagram.svg">
  <defs
     id="defs45769" />
  <sodipodi:namedview
     id="base"
     pagecolor="#ffffff"
     bordercolor="#666666"
     borderopacity="1.0"
     inkscape:pageopacity="0.0"
     inkscape:pageshadow="2"
     inkscape:zoom="1"
     inkscape:cx="10.644013"
     inkscape:cy="6.2507567"
     inkscape:document-units="px"
     inkscape:current-layer="layer1"
     showgrid="false"
     fit-margin-top="0"
     fit-margin-left="0"
     fit-margin-right="0"
     fit-margin-bottom="0"
     inkscape:window-width="447"
     inkscape:window-height="512"
     inkscape:window-x="906"
     inkscape:window-y="101"
     inkscape:window-maximized="0" />
  <metadata
     id="metadata45772">
    <rdf:RDF>
      <cc:Work
         rdf:about="">
        <dc:format>image/svg+xml</dc:format>
        <dc:type
           rdf:resource="http://purl.org/dc/dcmitype/StillImage" />
        <dc:title></dc:title>
      </cc:Work>
    </rdf:RDF>
  </metadata>
  <g
     inkscape:label="Layer 1"
     inkscape:groupmode="layer"
     id="layer1"
     transform="translate(-561.21313,-770.68288)">
    <g
       id="g8666"
       transform="matrix(1.25,0,0,-1.25,567.99563,819.86099)">
      <path
         d="m 0,0 c -2.911,2.845 -3.696,6.811 -5.426,10.279 l 0,9.669 c 1.732,3.467 2.516,7.435 5.429,10.278 l 0.681,-0.75 C -5.869,19.902 -5.871,10.326 0.684,0.751 0.456,0.501 0.228,0.25 0,0"
         style="fill:#0033cc;fill-opacity:1;fill-rule:nonzero;stroke:none"
         id="path8668"
         inkscape:connector-curvature="0" />
    </g>
    <g
       id="g8670"
       transform="matrix(1.25,0,0,-1.25,585.38588,831.18439)">
      <path
         d="m 0,0 c -3.451,1.763 -7.446,2.498 -10.273,5.438 0.253,0.227 0.506,0.453 0.759,0.68 9.565,-6.564 19.131,-6.565 28.696,0 0.253,-0.227 0.507,-0.453 0.76,-0.68 C 16.744,2.298 12.547,1.264 8.46,0 L 0,0 Z"
         style="fill:#0033cc;fill-opacity:1;fill-rule:nonzero;stroke:none"
         id="path8672"
         inkscape:connector-curvature="0" />
    </g>
    <g
       id="g8674"
       transform="matrix(1.25,0,0,-1.25,621.64401,807.01229)">
      <path
         d="m 0,0 c -0.851,-2.029 -1.643,-4.086 -2.578,-6.076 -0.421,-0.895 -0.715,-2.189 -2.251,-1.766 5.152,9.278 4.839,18.297 -1.28,27.041 0.227,0.249 0.455,0.499 0.683,0.749 C -2.378,16.938 -1.528,12.832 0,9.065 L 0,0 Z"
         style="fill:#0033cc;fill-opacity:1;fill-rule:nonzero;stroke:none"
         id="path8676"
         inkscape:connector-curvature="0" />
    </g>
    <g
       id="g8678"
       transform="matrix(1.25,0,0,-1.25,572.53639,777.53429)">
      <path
         d="m 0,0 c 8.787,7.308 21.435,7.308 30.229,0.001 -0.25,-0.228 -0.5,-0.456 -0.75,-0.683 C 19.903,5.842 10.327,5.853 0.751,-0.685 0.501,-0.456 0.25,-0.228 0,0"
         style="fill:#0033cc;fill-opacity:1;fill-rule:nonzero;stroke:none"
         id="path8680"
         inkscape:connector-curvature="0" />
    </g>
    <g
       id="g8682"
       transform="matrix(1.25,0,0,-1.25,572.53639,777.53429)">
      <path
         d="m 0,0 c 0.25,-0.228 0.501,-0.456 0.751,-0.685 -1.233,-1.233 -2.466,-2.467 -3.7,-3.7 L -3.63,-3.636 C -2.712,-2.132 -1.485,-0.937 0,0"
         style="fill:#0033cc;fill-opacity:1;fill-rule:nonzero;stroke:none"
         id="path8684"
         inkscape:connector-curvature="0" />
    </g>
    <g
       id="g8686"
       transform="matrix(1.25,0,0,-1.25,609.38526,778.38739)">
      <path
         d="M 0,0 C 0.25,0.228 0.5,0.455 0.75,0.683 2.234,-0.255 3.46,-1.451 4.381,-2.952 4.153,-3.202 3.925,-3.452 3.698,-3.701 2.465,-2.468 1.233,-1.234 0,0"
         style="fill:#0033cc;fill-opacity:1;fill-rule:nonzero;stroke:none"
         id="path8688"
         inkscape:connector-curvature="0" />
    </g>
    <g
       id="g8690"
       transform="matrix(1.25,0,0,-1.25,609.36314,823.53719)">
      <path
         d="M 0,0 C 1.304,1.622 3.207,2.701 4.185,4.618 4.816,1.706 2.445,0.735 0.76,-0.679 0.507,-0.453 0.253,-0.226 0,0"
         style="fill:#0033cc;fill-opacity:1;fill-rule:nonzero;stroke:none"
         id="path8692"
         inkscape:connector-curvature="0" />
    </g>
    <g
       id="g8694"
       transform="matrix(1.25,0,0,-1.25,568.85001,818.92189)">
      <path
         d="M 0,0 C 1.238,-1.231 2.476,-2.462 3.714,-3.692 3.461,-3.919 3.208,-4.145 2.955,-4.372 1.467,-3.442 0.235,-2.254 -0.684,-0.751 -0.456,-0.501 -0.228,-0.25 0,0"
         style="fill:#0033cc;fill-opacity:1;fill-rule:nonzero;stroke:none"
         id="path8696"
         inkscape:connector-curvature="0" />
    </g>
    <g
       id="g8698"
       transform="matrix(1.25,0,0,-1.25,591.67376,786.22879)">
      <path
         d="m 0,0 c 2.718,0 5.437,-0.049 8.153,0.014 2.48,0.058 3.771,-0.964 3.756,-3.547 -0.034,-5.738 -0.024,-11.476 -0.005,-17.214 0.008,-2.402 -1.176,-3.463 -3.538,-3.451 -5.738,0.028 -11.476,0.023 -17.214,0.003 -2.403,-0.008 -3.463,1.177 -3.451,3.538 0.028,5.738 0.022,11.476 0.003,17.214 -0.008,2.403 1.178,3.478 3.538,3.451 C -5.839,-0.025 -2.919,0 0,0"
         style="fill:#0033cc;fill-opacity:1;fill-rule:nonzero;stroke:none"
         id="path8700"
         inkscape:connector-curvature="0" />
    </g>
    <g
       id="g8702"
       transform="matrix(1.25,0,0,-1.25,591.32488,812.91709)">
      <path
         d="m 0,0 c 2.507,0 5.015,0.009 7.522,-0.005 1.002,-0.005 1.814,0.172 1.814,1.426 0,2.808 0.007,5.616 0.01,8.424 0,0.64 -0.101,1.175 -0.925,1.231 -1.104,0.074 -0.93,-0.634 -1,-1.364 -0.502,-5.26 -3.095,-7.917 -7.553,-7.821 -4.174,0.091 -6.756,2.851 -7.148,7.65 -0.051,0.632 0.354,1.473 -0.808,1.53 -1.016,0.05 -1.012,-0.606 -1.11,-1.358 -1.209,-9.246 -0.816,-9.716 8.295,-9.716 0.301,0 0.602,0 0.903,0.003"
         style="fill:#000000;fill-opacity:1;fill-rule:nonzero;stroke:none"
         id="path8704"
         inkscape:connector-curvature="0" />
    </g>
    <g
       id="g8706"
       transform="matrix(1.25,0,0,-1.25,597.24851,801.20969)">
      <path
         d="M 0,0 C -0.066,2.445 -2.255,4.567 -4.691,4.545 -7.132,4.524 -9.288,2.37 -9.312,-0.071 -9.337,-2.625 -7.009,-4.882 -4.471,-4.765 -2.02,-4.652 0.065,-2.429 0,0"
         style="fill:#000000;fill-opacity:1;fill-rule:nonzero;stroke:none"
         id="path8708"
         inkscape:connector-curvature="0" />
    </g>
    <g
       id="g8710"
       transform="matrix(1.25,0,0,-1.25,600.01276,789.83069)">
      <path
         d="m 0,0 c -2.075,0.39 -2.114,-0.893 -2.186,-2.47 -0.086,-1.891 0.879,-2.005 2.372,-2.085 2.024,-0.11 2.207,0.914 2.242,2.54 C 2.467,-0.159 1.569,0.222 0,0"
         style="fill:#0033cc;fill-opacity:1;fill-rule:nonzero;stroke:none"
         id="path8712"
         inkscape:connector-curvature="0" />
    </g>
  </g>
</svg>
