<?xml version="1.0" encoding="UTF-8" standalone="no"?>
<!-- Created with Inkscape (http://www.inkscape.org/) -->

<svg
   xmlns:dc="http://purl.org/dc/elements/1.1/"
   xmlns:cc="http://creativecommons.org/ns#"
   xmlns:rdf="http://www.w3.org/1999/02/22-rdf-syntax-ns#"
   xmlns:svg="http://www.w3.org/2000/svg"
   xmlns="http://www.w3.org/2000/svg"
   xmlns:sodipodi="http://sodipodi.sourceforge.net/DTD/sodipodi-0.dtd"
   xmlns:inkscape="http://www.inkscape.org/namespaces/inkscape"
   width="17.162073mm"
   height="17.162088mm"
   viewBox="0 0 60.810495 60.81055"
   id="svg45767"
   version="1.1"
   inkscape:version="0.91 r13725"
   sodipodi:docname="icon-youtube.svg">
  <defs
     id="defs45769" />
  <sodipodi:namedview
     id="base"
     pagecolor="#ffffff"
     bordercolor="#666666"
     borderopacity="1.0"
     inkscape:pageopacity="0.0"
     inkscape:pageshadow="2"
     inkscape:zoom="1"
     inkscape:cx="11.049261"
     inkscape:cy="7.6560281"
     inkscape:document-units="px"
     inkscape:current-layer="layer1"
     showgrid="false"
     fit-margin-top="0"
     fit-margin-left="0"
     fit-margin-right="0"
     fit-margin-bottom="0"
     inkscape:window-width="545"
     inkscape:window-height="512"
     inkscape:window-x="10"
     inkscape:window-y="53"
     inkscape:window-maximized="0" />
  <metadata
     id="metadata45772">
    <rdf:RDF>
      <cc:Work
         rdf:about="">
        <dc:format>image/svg+xml</dc:format>
        <dc:type
           rdf:resource="http://purl.org/dc/dcmitype/StillImage" />
        <dc:title></dc:title>
      </cc:Work>
    </rdf:RDF>
  </metadata>
  <g
     inkscape:label="Layer 1"
     inkscape:groupmode="layer"
     id="layer1"
     transform="translate(-560.80788,-771.77911)">
    <g
       id="g8634"
       transform="matrix(1.2500001,0,0,-1.2500001,560.80788,796.10346)">
      <path
         d="M 0,0 C 1.762,3.479 2.506,7.495 5.463,10.343 5.691,10.091 5.919,9.84 6.147,9.589 -0.442,-0.047 -0.44,-9.683 6.147,-19.319 5.919,-19.57 5.691,-19.821 5.463,-20.072 2.495,-17.231 1.759,-13.21 0,-9.73 L 0,0 Z"
         style="fill:#ad0909;fill-opacity:1;fill-rule:nonzero;stroke:none"
         id="path8636"
         inkscape:connector-curvature="0" />
    </g>
    <g
       id="g8638"
       transform="matrix(1.2500001,0,0,-1.2500001,572.20375,778.60786)">
      <path
         d="m 0,0 c 2.85,2.952 6.866,3.697 10.343,5.463 l 9.121,0 C 23.244,3.902 27.404,3.101 30.415,0 30.166,-0.227 29.916,-0.455 29.666,-0.682 20.028,5.886 10.39,5.893 0.752,-0.684 0.501,-0.456 0.251,-0.228 0,0"
         style="fill:#ad0909;fill-opacity:1;fill-rule:nonzero;stroke:none"
         id="path8640"
         inkscape:connector-curvature="0" />
    </g>
    <g
       id="g8642"
       transform="matrix(1.2500001,0,0,-1.2500001,621.61838,808.26556)">
      <path
         d="m 0,0 c -1.756,-3.482 -2.508,-7.494 -5.459,-10.345 -0.229,0.252 -0.458,0.503 -0.687,0.754 6.589,9.637 6.589,19.274 -0.002,28.91 0.229,0.251 0.457,0.502 0.685,0.753 C -2.37,17.056 -1.544,12.91 0,9.122 L 0,0 Z"
         style="fill:#ad0909;fill-opacity:1;fill-rule:nonzero;stroke:none"
         id="path8644"
         inkscape:connector-curvature="0" />
    </g>
    <g
       id="g8646"
       transform="matrix(1.2500001,0,0,-1.2500001,585.13213,832.58966)">
      <path
         d="m 0,0 c -3.468,1.783 -7.499,2.502 -10.337,5.475 0.254,0.227 0.507,0.454 0.76,0.681 9.628,-6.599 19.256,-6.6 28.883,0 C 19.56,5.929 19.813,5.702 20.066,5.475 17.063,2.362 12.901,1.562 9.122,0 L 0,0 Z"
         style="fill:#ad0909;fill-opacity:1;fill-rule:nonzero;stroke:none"
         id="path8648"
         inkscape:connector-curvature="0" />
    </g>
    <g
       id="g8650"
       transform="matrix(1.2500001,0,0,-1.2500001,614.78988,783.17516)">
      <path
         d="m 0,0 c -0.228,-0.251 -0.456,-0.502 -0.685,-0.753 -1.239,1.241 -2.478,2.483 -3.718,3.725 0.25,0.227 0.5,0.455 0.75,0.682 C -2.155,2.717 -0.929,1.507 0,0"
         style="fill:#ad0909;fill-opacity:1;fill-rule:nonzero;stroke:none"
         id="path8652"
         inkscape:connector-curvature="0" />
    </g>
    <g
       id="g8654"
       transform="matrix(1.2500001,0,0,-1.2500001,610.215,825.74556)">
      <path
         d="M 0,0 C -0.253,0.227 -0.507,0.454 -0.76,0.681 0.486,1.918 1.731,3.156 2.977,4.393 L 3.663,3.639 C 2.733,2.134 1.499,0.933 0,0"
         style="fill:#ad0909;fill-opacity:1;fill-rule:nonzero;stroke:none"
         id="path8656"
         inkscape:connector-curvature="0" />
    </g>
    <g
       id="g8658"
       transform="matrix(1.2500001,0,0,-1.2500001,573.1615,824.89436)">
      <path
         d="M 0,0 C -0.253,-0.227 -0.507,-0.454 -0.76,-0.681 -2.258,0.253 -3.495,1.45 -4.42,2.96 -4.192,3.211 -3.964,3.463 -3.735,3.714 -2.49,2.476 -1.245,1.238 0,0"
         style="fill:#ad0909;fill-opacity:1;fill-rule:nonzero;stroke:none"
         id="path8660"
         inkscape:connector-curvature="0" />
    </g>
    <g
       id="g8662"
       transform="matrix(1.2500001,0,0,-1.2500001,572.20375,778.60786)">
      <path
         d="m 0,0 c 0.251,-0.228 0.501,-0.456 0.752,-0.684 -1.241,-1.242 -2.481,-2.483 -3.721,-3.724 -0.229,0.252 -0.457,0.503 -0.685,0.754 C -2.725,-2.147 -1.499,-0.936 0,0"
         style="fill:#ad0909;fill-opacity:1;fill-rule:nonzero;stroke:none"
         id="path8664"
         inkscape:connector-curvature="0" />
    </g>
    <g
       id="g8714"
       transform="matrix(1.2500001,0,0,-1.2500001,590.979,789.43506)">
      <path
         d="m 0,0 c 2.194,0 4.387,0.014 6.581,-0.006 1.182,-0.011 2.364,-0.071 3.545,-0.129 0.567,-0.028 1.136,-0.078 1.697,-0.164 0.793,-0.123 1.348,-0.611 1.786,-1.241 0.48,-0.691 0.721,-1.479 0.92,-2.279 0.286,-1.146 0.387,-2.317 0.471,-3.491 0.124,-1.736 0.079,-3.473 0.035,-5.208 -0.032,-1.226 -0.15,-2.45 -0.418,-3.653 -0.218,-0.978 -0.481,-1.938 -1.097,-2.771 -0.559,-0.756 -1.314,-1.084 -2.24,-1.193 -1.933,-0.229 -3.878,-0.149 -5.815,-0.273 -0.447,-0.028 -0.898,-0.003 -1.347,-0.003 -3.032,0 -6.063,-0.028 -9.094,0.01 -1.768,0.023 -3.538,0.072 -5.302,0.222 -0.495,0.042 -1.003,0.017 -1.482,0.192 -0.976,0.358 -1.556,1.094 -1.953,1.992 -0.287,0.647 -0.44,1.336 -0.581,2.025 -0.382,1.862 -0.434,3.747 -0.405,5.638 0.012,0.847 -0.024,1.697 0.026,2.542 0.054,0.927 0.139,1.854 0.272,2.777 0.123,0.858 0.306,1.698 0.642,2.502 0.194,0.465 0.442,0.902 0.753,1.3 0.441,0.563 1.053,0.834 1.753,0.932 1.404,0.196 2.82,0.195 4.233,0.252 C -4.68,0.068 -2.34,-0.005 0,0"
         style="fill:#ad0909;fill-opacity:1;fill-rule:nonzero;stroke:none"
         id="path8716"
         inkscape:connector-curvature="0" />
    </g>
    <g
       id="g8718"
       transform="matrix(1.2500001,0,0,-1.2500001,585.5965,802.15546)">
      <path
         d="m 0,0 0.001,0 c 0,-1.842 0,-3.684 0.001,-5.526 0,-0.097 -0.03,-0.213 0.086,-0.268 0.105,-0.049 0.168,0.047 0.241,0.094 0.401,0.256 0.799,0.518 1.199,0.776 2.424,1.562 4.849,3.125 7.272,4.688 0.26,0.168 0.258,0.235 -0.001,0.402 C 5.979,1.994 3.159,3.823 0.339,5.65 0.256,5.703 0.175,5.799 0.069,5.746 -0.043,5.69 0.001,5.567 0.001,5.471 0,3.647 0,1.824 0,0"
         style="fill:#000000;fill-opacity:1;fill-rule:nonzero;stroke:none"
         id="path8720"
         inkscape:connector-curvature="0" />
    </g>
    <g
       id="g8882"
       transform="matrix(1.2500001,0,0,-1.2500001,584.64237,802.15056)">
      <path
         d="m 0,0 0.001,0 c 0,-2.155 0,-4.31 0.001,-6.465 0,-0.114 -0.035,-0.249 0.101,-0.313 0.122,-0.058 0.197,0.055 0.282,0.11 0.469,0.3 0.935,0.605 1.403,0.907 2.836,1.829 5.672,3.656 8.507,5.485 0.304,0.196 0.301,0.274 -0.002,0.471 C 6.994,2.333 3.695,4.472 0.396,6.61 0.3,6.672 0.205,6.784 0.081,6.722 -0.051,6.656 0.002,6.512 0.002,6.4 -0.001,4.267 0,2.133 0,0 Z"
         style="fill:none;stroke:#000000;stroke-width:0.25;stroke-linecap:butt;stroke-linejoin:miter;stroke-miterlimit:10;stroke-dasharray:none;stroke-opacity:1"
         id="path8884"
         inkscape:connector-curvature="0" />
    </g>
  </g>
</svg>
