<?xml version="1.0" encoding="UTF-8" standalone="no"?>
<!-- Created with Inkscape (http://www.inkscape.org/) -->

<svg
   xmlns:dc="http://purl.org/dc/elements/1.1/"
   xmlns:cc="http://creativecommons.org/ns#"
   xmlns:rdf="http://www.w3.org/1999/02/22-rdf-syntax-ns#"
   xmlns:svg="http://www.w3.org/2000/svg"
   xmlns="http://www.w3.org/2000/svg"
   xmlns:sodipodi="http://sodipodi.sourceforge.net/DTD/sodipodi-0.dtd"
   xmlns:inkscape="http://www.inkscape.org/namespaces/inkscape"
   width="17.185392mm"
   height="17.181213mm"
   viewBox="0 0 60.893123 60.878315"
   id="svg45462"
   version="1.1"
   inkscape:version="0.91 r13725"
   sodipodi:docname="icon-facebook.svg">
  <defs
     id="defs45464" />
  <sodipodi:namedview
     id="base"
     pagecolor="#ffffff"
     bordercolor="#666666"
     borderopacity="1.0"
     inkscape:pageopacity="0.0"
     inkscape:pageshadow="2"
     inkscape:zoom="0.35"
     inkscape:cx="-400.26773"
     inkscape:cy="270.43903"
     inkscape:document-units="px"
     inkscape:current-layer="layer1"
     showgrid="false"
     fit-margin-top="0"
     fit-margin-left="0"
     fit-margin-right="0"
     fit-margin-bottom="0"
     inkscape:window-width="1366"
     inkscape:window-height="705"
     inkscape:window-x="-8"
     inkscape:window-y="-8"
     inkscape:window-maximized="1" />
  <metadata
     id="metadata45467">
    <rdf:RDF>
      <cc:Work
         rdf:about="">
        <dc:format>image/svg+xml</dc:format>
        <dc:type
           rdf:resource="http://purl.org/dc/dcmitype/StillImage" />
        <dc:title></dc:title>
      </cc:Work>
    </rdf:RDF>
  </metadata>
  <g
     inkscape:label="Layer 1"
     inkscape:groupmode="layer"
     id="layer1"
     transform="translate(-312.41058,-741.92292)">
    <path
       inkscape:connector-curvature="0"
       id="path8568"
       style="fill:#0000ff;fill-opacity:1;fill-rule:nonzero;stroke:none"
       d="m 348.21933,741.92317 c 4.7175,1.965 9.9325,2.93625 13.6875,6.83125 -0.3125,0.28375 -0.62625,0.56875 -0.94,0.8525 -12.045,-8.19125 -24.09,-8.205 -36.135,0.001 -0.31375,-0.28375 -0.6275,-0.56875 -0.94125,-0.85375 3.54375,-3.725 8.59,-4.6075 12.92625,-6.83125 l 11.4025,0 z" />
    <path
       inkscape:connector-curvature="0"
       id="path8572"
       style="fill:#0000ff;fill-opacity:1;fill-rule:nonzero;stroke:none"
       d="m 366.47371,753.31955 c 3.88125,3.7625 4.89125,8.95625 6.83,13.6875 l 0,11.4025 c -2.21875,4.34 -3.1125,9.38 -6.82875,12.92875 -0.285,-0.31375 -0.57,-0.6275 -0.855,-0.94125 8.22625,-12.045 8.22625,-24.09125 -10e-4,-36.13625 0.285,-0.31375 0.57,-0.6275 0.855,-0.94125" />
    <path
       inkscape:connector-curvature="0"
       id="path8576"
       style="fill:#0000ff;fill-opacity:1;fill-rule:nonzero;stroke:none"
       d="m 319.31996,791.3388 c -9.2125,-10.87625 -9.2125,-27.13 0,-38.02125 0.28625,0.31625 0.5725,0.6325 0.85875,0.94875 -8.21,12.04125 -8.20625,24.0825 0,36.12375 -0.28625,0.31625 -0.5725,0.6325 -0.85875,0.94875" />
    <path
       inkscape:connector-curvature="0"
       id="path8580"
       style="fill:#0000ff;fill-opacity:1;fill-rule:nonzero;stroke:none"
       d="m 361.90271,795.89467 c -10.87,9.20875 -27.11375,9.20875 -38.00875,0 0.32125,-0.28625 0.64125,-0.5725 0.9625,-0.85875 12.0275,8.22125 24.05625,8.2225 36.08375,0 0.32125,0.28625 0.64125,0.5725 0.9625,0.85875" />
    <path
       inkscape:connector-curvature="0"
       id="path8584"
       style="fill:#0000ff;fill-opacity:1;fill-rule:nonzero;stroke:none"
       d="m 320.17896,754.26667 c -0.28625,-0.31625 -0.5725,-0.6325 -0.85875,-0.94875 1.16875,-1.87625 2.6925,-3.39625 4.57,-4.5625 0.31375,0.28375 0.6275,0.56875 0.94125,0.8525 -1.55125,1.55375 -3.10125,3.10625 -4.6525,4.65875" />
    <path
       inkscape:connector-curvature="0"
       id="path8588"
       style="fill:#0000ff;fill-opacity:1;fill-rule:nonzero;stroke:none"
       d="m 324.85658,795.03605 c -0.32125,0.28625 -0.64125,0.5725 -0.9625,0.85875 -1.86375,-1.17875 -3.415,-2.67 -4.57375,-4.55625 0.28625,-0.31625 0.5725,-0.6325 0.85875,-0.9475 1.55875,1.5475 3.11875,3.09625 4.6775,4.645" />
    <path
       inkscape:connector-curvature="0"
       id="path8592"
       style="fill:#0000ff;fill-opacity:1;fill-rule:nonzero;stroke:none"
       d="m 361.90271,795.89467 c -0.32125,-0.28625 -0.64125,-0.5725 -0.9625,-0.85875 1.56,-1.54625 3.12,-3.0925 4.68,-4.63875 0.285,0.31375 0.57,0.6275 0.855,0.94125 -1.15625,1.8875 -2.71,3.3775 -4.5725,4.55625" />
    <path
       inkscape:connector-curvature="0"
       id="path8596"
       style="fill:#0000ff;fill-opacity:1;fill-rule:nonzero;stroke:none"
       d="m 366.47371,753.31955 c -0.285,0.31375 -0.57,0.6275 -0.855,0.94125 -1.55,-1.55125 -3.10125,-3.1025 -4.65125,-4.65375 0.3125,-0.285 0.62625,-0.56875 0.93875,-0.8525 1.87625,1.16875 3.405,2.68375 4.5675,4.565" />
    <path
       inkscape:connector-curvature="0"
       id="path8600"
       style="fill:#0000ff;fill-opacity:1;fill-rule:nonzero;stroke:none"
       d="m 346.64108,755.5618 c 1.33125,0.44 3.72625,-1.05375 3.90875,2.19 0.15,2.6525 -0.47375,3.95875 -3.445,3.69375 -2.63625,-0.235 -2.69625,1.77375 -2.8125,3.75375 -0.13375,2.28 0.815,3.015 2.99,2.91 1.24,-0.06 3.33,-0.555 2.71125,1.8975 -0.40625,1.61 0.70875,4.54375 -2.69875,4.19125 -2.5775,-0.26625 -3.115,0.9375 -3.01125,3.215 0.15,3.26375 -0.095,6.545 0.0763,9.80625 0.14,2.67375 -1.47625,2.56375 -3.275,2.5275 -1.7075,-0.035 -3.505,0.32375 -3.33625,-2.43875 0.1625,-2.69125 0.0462,-5.40125 0.0288,-8.1025 -0.0175,-2.56625 0.8775,-5.59875 -3.73125,-5.09625 -2.23,0.2425 -1.38,-2.0125 -1.465,-3.24375 -0.08,-1.15875 -0.48625,-2.97375 1.56375,-2.725 3.67625,0.4475 3.63875,-1.6875 3.695,-4.35875 0.11875,-5.5775 3.03375,-8.215 8.80125,-8.22" />
  </g>
</svg>
