<?xml version="1.0" encoding="UTF-8" standalone="no"?>
<!-- Created with Inkscape (http://www.inkscape.org/) -->
<svg id="svg45767" xmlns:rdf="http://www.w3.org/1999/02/22-rdf-syntax-ns#" xmlns="http://www.w3.org/2000/svg" height="17.075mm" width="17.055mm" version="1.1" xmlns:cc="http://creativecommons.org/ns#" xmlns:dc="http://purl.org/dc/elements/1.1/" viewBox="0 0 60.43088 60.501505">
 <metadata id="metadata45772">
  <rdf:RDF>
   <cc:Work rdf:about="">
    <dc:format>image/svg+xml</dc:format>
    <dc:type rdf:resource="http://purl.org/dc/dcmitype/StillImage"/>
    <dc:title/>
   </cc:Work>
  </rdf:RDF>
 </metadata>
 <g id="layer1" transform="translate(-561.21 -770.68)">
  <g id="g8666" transform="matrix(1.25 0 0 -1.25 568 819.86)">
   <path id="path8668" d="m0 0c-2.911 2.845-3.696 6.811-5.426 10.279v9.669c1.732 3.467 2.516 7.435 5.429 10.278l0.681-0.75c-6.553-9.574-6.555-19.15 0-28.725-0.228-0.25-0.456-0.501-0.684-0.751" fill="#03c"/>
  </g>
  <g id="g8670" transform="matrix(1.25 0 0 -1.25 585.39 831.18)">
   <path id="path8672" d="m0 0c-3.451 1.763-7.446 2.498-10.273 5.438 0.253 0.227 0.506 0.453 0.759 0.68 9.565-6.564 19.131-6.565 28.696 0 0.253-0.227 0.507-0.453 0.76-0.68-3.198-3.14-7.395-4.174-11.482-5.438h-8.46z" fill="#03c"/>
  </g>
  <g id="g8674" transform="matrix(1.25 0 0 -1.25 621.64 807.01)">
   <path id="path8676" d="m0 0c-0.851-2.029-1.643-4.086-2.578-6.076-0.421-0.895-0.715-2.189-2.251-1.766 5.152 9.278 4.839 18.297-1.28 27.041 0.227 0.249 0.455 0.499 0.683 0.749 3.048-3.01 3.898-7.116 5.426-10.883v-9.065z" fill="#03c"/>
  </g>
  <g id="g8678" transform="matrix(1.25 0 0 -1.25 572.54 777.53)">
   <path id="path8680" d="m0 0c8.787 7.308 21.435 7.308 30.229 0.001-0.25-0.228-0.5-0.456-0.75-0.683-9.576 6.524-19.152 6.535-28.728-0.003-0.25 0.229-0.501 0.457-0.751 0.685" fill="#03c"/>
  </g>
  <g id="g8682" transform="matrix(1.25 0 0 -1.25 572.54 777.53)">
   <path id="path8684" d="m0 0c0.25-0.228 0.501-0.456 0.751-0.685-1.233-1.233-2.466-2.467-3.7-3.7l-0.681 0.749c0.918 1.504 2.145 2.699 3.63 3.636" fill="#03c"/>
  </g>
  <g id="g8686" transform="matrix(1.25 0 0 -1.25 609.39 778.39)">
   <path id="path8688" d="m0 0c0.25 0.228 0.5 0.455 0.75 0.683 1.484-0.938 2.71-2.134 3.631-3.635-0.228-0.25-0.456-0.5-0.683-0.749-1.233 1.233-2.465 2.467-3.698 3.701" fill="#03c"/>
  </g>
  <g id="g8690" transform="matrix(1.25 0 0 -1.25 609.36 823.54)">
   <path id="path8692" d="m0 0c1.304 1.622 3.207 2.701 4.185 4.618 0.631-2.912-1.74-3.883-3.425-5.297-0.253 0.226-0.507 0.453-0.76 0.679" fill="#03c"/>
  </g>
  <g id="g8694" transform="matrix(1.25 0 0 -1.25 568.85 818.92)">
   <path id="path8696" d="m0 0c1.238-1.231 2.476-2.462 3.714-3.692-0.253-0.227-0.506-0.453-0.759-0.68-1.488 0.93-2.72 2.118-3.639 3.621 0.228 0.25 0.456 0.501 0.684 0.751" fill="#03c"/>
  </g>
  <g id="g8698" transform="matrix(1.25 0 0 -1.25 591.67 786.23)">
   <path id="path8700" d="m0 0c2.718 0 5.437-0.049 8.153 0.014 2.48 0.058 3.771-0.964 3.756-3.547-0.034-5.738-0.024-11.476-0.005-17.214 0.008-2.402-1.176-3.463-3.538-3.451-5.738 0.028-11.476 0.023-17.214 0.003-2.403-0.008-3.463 1.177-3.451 3.538 0.028 5.738 0.022 11.476 0.003 17.214-0.008 2.403 1.178 3.478 3.538 3.451 2.919-0.033 5.839-0.008 8.758-0.008" fill="#03c"/>
  </g>
  <g id="g8702" transform="matrix(1.25 0 0 -1.25 591.32 812.92)">
   <path id="path8704" d="m0 0c2.507 0 5.015 0.009 7.522-0.005 1.002-0.005 1.814 0.172 1.814 1.426 0 2.808 0.007 5.616 0.01 8.424 0 0.64-0.101 1.175-0.925 1.231-1.104 0.074-0.93-0.634-1-1.364-0.502-5.26-3.095-7.917-7.553-7.821-4.174 0.091-6.756 2.851-7.148 7.65-0.051 0.632 0.354 1.473-0.808 1.53-1.016 0.05-1.012-0.606-1.11-1.358-1.209-9.246-0.816-9.716 8.295-9.716 0.301 0 0.602 0 0.903 0.003"/>
  </g>
  <g id="g8706" transform="matrix(1.25 0 0 -1.25 597.25 801.21)">
   <path id="path8708" d="m0 0c-0.066 2.445-2.255 4.567-4.691 4.545-2.441-0.021-4.597-2.175-4.621-4.616-0.025-2.554 2.303-4.811 4.841-4.694 2.451 0.113 4.536 2.336 4.471 4.765"/>
  </g>
  <g id="g8710" transform="matrix(1.25 0 0 -1.25 600.01 789.83)">
   <path id="path8712" d="m0 0c-2.075 0.39-2.114-0.893-2.186-2.47-0.086-1.891 0.879-2.005 2.372-2.085 2.024-0.11 2.207 0.914 2.242 2.54 0.039 1.856-0.859 2.237-2.428 2.015" fill="#03c"/>
  </g>
 </g>
</svg>
