<?xml version="1.0" encoding="UTF-8" standalone="no"?>
<!-- Created with Inkscape (http://www.inkscape.org/) -->
<svg id="svg2" xmlns:rdf="http://www.w3.org/1999/02/22-rdf-syntax-ns#" xmlns="http://www.w3.org/2000/svg" xml:space="preserve" height="60.878" viewBox="0 0 60.893375 60.878124" width="60.893" version="1.1" xmlns:cc="http://creativecommons.org/ns#" xmlns:dc="http://purl.org/dc/elements/1.1/"><metadata id="metadata8"><rdf:RDF><cc:Work rdf:about=""><dc:format>image/svg+xml</dc:format><dc:type rdf:resource="http://purl.org/dc/dcmitype/StillImage"/><dc:title/></cc:Work></rdf:RDF></metadata><defs id="defs6"><clipPath id="clipPath16" clipPathUnits="userSpaceOnUse"><path id="path18" d="m0 48.702h48.715v-48.702h-48.715v48.702z"/></clipPath></defs><g id="g10" transform="matrix(1.25 0 0 -1.25 0 60.878)"><g id="g12"><g id="g14" fill="#00f" clip-path="url(#clipPath16)"><g id="g20" transform="translate(28.647 48.702)"><path id="path22" d="m0 0c3.774-1.572 7.946-2.349 10.95-5.465-0.251-0.227-0.501-0.455-0.752-0.682-9.636 6.553-19.272 6.564-28.908-0.001-0.251 0.227-0.502 0.455-0.753 0.683 2.835 2.98 6.872 3.686 10.341 5.465h9.122z" fill="#00f"/></g><g id="g24" transform="translate(43.251 39.585)"><path id="path26" d="m0 0c3.105-3.01 3.913-7.165 5.464-10.95v-9.122c-1.775-3.472-2.49-7.504-5.463-10.343-0.228 0.251-0.456 0.502-0.684 0.753 6.581 9.636 6.581 19.273-0.001 28.909 0.228 0.251 0.456 0.502 0.684 0.753" fill="#00f"/></g><g id="g28" transform="translate(5.5277,9.17)"><path id="path30" d="m0 0c-7.37 8.701-7.37 21.704 0 30.417l0.687-0.759c-6.568-9.633-6.565-19.266 0-28.899l-0.687-0.759" fill="#00f"/></g><g id="g32" transform="translate(39.594,5.5254)"><path id="path34" d="m0 0c-8.696-7.367-21.691-7.367-30.407 0 0.257 0.229 0.513 0.458 0.77 0.687 9.622-6.577 19.245-6.578 28.867 0 0.257-0.229 0.513-0.458 0.77-0.687" fill="#00f"/></g><g id="g36" transform="translate(6.2149 38.828)"><path id="path38" d="m0 0l-0.687 0.759c0.935 1.501 2.154 2.717 3.656 3.65 0.251-0.227 0.502-0.455 0.753-0.682-1.241-1.243-2.481-2.485-3.722-3.727" fill="#00f"/></g><g id="g40" transform="translate(9.9571,6.2122)"><path id="path42" d="m0 0c-0.257-0.229-0.513-0.458-0.77-0.687-1.491 0.943-2.732 2.136-3.659 3.645 0.229 0.253 0.458 0.506 0.687 0.758 1.247-1.238 2.495-2.477 3.742-3.716" fill="#00f"/></g><g id="g44" transform="translate(39.594,5.5254)"><path id="path46" d="m0 0c-0.257 0.229-0.513 0.458-0.77 0.687l3.744 3.711c0.228-0.251 0.456-0.502 0.684-0.753-0.925-1.51-2.168-2.702-3.658-3.645" fill="#00f"/></g><g id="g48" transform="translate(43.251 39.585)"><path id="path50" d="m0 0c-0.228-0.251-0.456-0.502-0.684-0.753-1.24 1.241-2.481 2.482-3.721 3.723 0.25 0.228 0.501 0.455 0.752 0.682 1.5-0.935 2.723-2.147 3.653-3.652" fill="#00f"/></g><g id="g52" transform="translate(27.385 37.792)"><path id="path54" d="m0 0c1.065-0.352 2.981 0.843 3.127-1.752 0.12-2.122-0.379-3.167-2.756-2.955-2.109 0.188-2.157-1.419-2.25-3.003-0.107-1.824 0.652-2.412 2.392-2.328 0.992 0.048 2.664 0.444 2.169-1.518-0.325-1.288 0.567-3.635-2.159-3.353-2.062 0.213-2.492-0.75-2.409-2.572 0.12-2.611-0.076-5.236 0.061-7.845 0.112-2.139-1.181-2.051-2.62-2.022-1.366 0.028-2.804-0.259-2.669 1.951 0.13 2.153 0.037 4.321 0.023 6.482-0.014 2.053 0.702 4.479-2.985 4.077-1.784-0.194-1.104 1.61-1.172 2.595-0.064 0.927-0.389 2.379 1.251 2.18 2.941-0.358 2.911 1.35 2.956 3.487 0.095 4.462 2.427 6.572 7.041 6.576" fill="#00f"/></g></g></g></g></svg>
