<?xml version="1.0" encoding="UTF-8" standalone="no"?>
<!-- Created with Inkscape (http://www.inkscape.org/) -->

<svg
   xmlns:dc="http://purl.org/dc/elements/1.1/"
   xmlns:cc="http://creativecommons.org/ns#"
   xmlns:rdf="http://www.w3.org/1999/02/22-rdf-syntax-ns#"
   xmlns:svg="http://www.w3.org/2000/svg"
   xmlns="http://www.w3.org/2000/svg"
   xmlns:sodipodi="http://sodipodi.sourceforge.net/DTD/sodipodi-0.dtd"
   xmlns:inkscape="http://www.inkscape.org/namespaces/inkscape"
   width="17.898815mm"
   height="17.894283mm"
   viewBox="0 0 63.420998 63.404942"
   id="svg45767"
   version="1.1"
   inkscape:version="0.91 r13725"
   sodipodi:docname="icon-soundcloud.svg">
  <defs
     id="defs45769" />
  <sodipodi:namedview
     id="base"
     pagecolor="#ffffff"
     bordercolor="#666666"
     borderopacity="1.0"
     inkscape:pageopacity="0.0"
     inkscape:pageshadow="2"
     inkscape:zoom="1"
     inkscape:cx="-24.835049"
     inkscape:cy="129.76397"
     inkscape:document-units="px"
     inkscape:current-layer="layer1"
     showgrid="false"
     fit-margin-top="0"
     fit-margin-left="0"
     fit-margin-right="0"
     fit-margin-bottom="0"
     inkscape:window-width="545"
     inkscape:window-height="512"
     inkscape:window-x="10"
     inkscape:window-y="53"
     inkscape:window-maximized="0" />
  <metadata
     id="metadata45772">
    <rdf:RDF>
      <cc:Work
         rdf:about="">
        <dc:format>image/svg+xml</dc:format>
        <dc:type
           rdf:resource="http://purl.org/dc/dcmitype/StillImage" />
        <dc:title></dc:title>
      </cc:Work>
    </rdf:RDF>
  </metadata>
  <g
     inkscape:label="Layer 1"
     inkscape:groupmode="layer"
     id="layer1"
     transform="translate(-596.69219,-891.29266)">
    <g
       id="g8730"
       transform="matrix(1.25,0,0,-1.25,631.11069,920.56356)">
      <path
         d="M 0,0 C 0,2.739 0.004,5.479 -0.004,8.218 -0.005,8.752 0.114,8.877 0.617,9.065 1.11,9.249 1.617,9.389 2.133,9.49 2.582,9.578 3.039,9.622 3.497,9.649 4.098,9.685 4.695,9.639 5.288,9.555 5.954,9.461 6.602,9.29 7.23,9.049 8.316,8.633 9.294,8.039 10.157,7.26 11.201,6.317 11.999,5.198 12.542,3.898 12.808,3.264 12.998,2.609 13.121,1.935 13.16,1.721 13.193,1.506 13.208,1.288 c 0.01,-0.15 0.042,-0.164 0.183,-0.108 0.864,0.342 1.761,0.453 2.672,0.297 1.878,-0.322 3.242,-1.348 4.055,-3.079 0.434,-0.924 0.568,-1.905 0.415,-2.908 C 20.272,-6.207 19.392,-7.501 17.909,-8.373 17.47,-8.631 17,-8.817 16.5,-8.928 16.033,-9.032 15.562,-9.08 15.083,-9.08 11.717,-9.077 8.35,-9.086 4.984,-9.075 3.544,-9.07 2.104,-9.07 0.664,-9.065 0.27,-9.063 0,-8.792 0,-8.396 0,-5.597 0,-2.799 0,0"
         style="fill:#000102;fill-opacity:1;fill-rule:nonzero;stroke:none"
         id="path8732"
         inkscape:connector-curvature="0" />
    </g>
    <g
       id="g8734"
       transform="matrix(1.25,0,0,-1.25,626.61981,921.62126)">
      <path
         d="m 0,0 c 0.05,2.556 0.1,5.112 0.151,7.668 0.006,0.325 0.237,0.559 0.543,0.559 0.31,0 0.544,-0.242 0.551,-0.57 C 1.305,4.711 1.364,1.765 1.427,-1.182 1.444,-1.963 1.492,-2.744 1.459,-3.524 1.407,-4.735 1.333,-5.946 1.269,-7.156 1.26,-7.324 1.252,-7.492 1.245,-7.66 1.232,-7.975 0.987,-8.223 0.692,-8.218 0.397,-8.213 0.165,-7.976 0.15,-7.664 c -0.066,1.361 -0.136,2.721 -0.198,4.082 -0.037,0.808 0.026,1.616 0.032,2.424 0.003,0.386 0.001,0.772 0.001,1.158 0.005,0 0.01,0 0.015,0"
         style="fill:#000102;fill-opacity:1;fill-rule:nonzero;stroke:none"
         id="path8736"
         inkscape:connector-curvature="0" />
    </g>
    <g
       id="g8738"
       transform="matrix(1.25,0,0,-1.25,624.39582,921.57516)">
      <path
         d="M 0,0 C 0.047,1.952 0.093,3.904 0.14,5.856 0.146,6.115 0.298,6.334 0.508,6.387 0.742,6.446 0.965,6.361 1.087,6.164 1.158,6.047 1.168,5.918 1.171,5.784 1.217,4.077 1.264,2.371 1.312,0.664 1.348,-0.644 1.401,-1.951 1.412,-3.258 1.418,-3.92 1.347,-4.582 1.309,-5.244 1.263,-6.064 1.215,-6.885 1.17,-7.705 1.149,-8.075 0.882,-8.295 0.532,-8.226 c -0.21,0.042 -0.378,0.245 -0.39,0.482 -0.039,0.73 -0.075,1.46 -0.113,2.19 -0.031,0.608 -0.064,1.215 -0.097,1.823 -0.027,0.499 -0.005,0.998 0.009,1.498 0.021,0.744 0.037,1.489 0.055,2.233 0.001,0 0.003,0 0.004,0"
         style="fill:#000102;fill-opacity:1;fill-rule:nonzero;stroke:none"
         id="path8740"
         inkscape:connector-curvature="0" />
    </g>
    <g
       id="g8742"
       transform="matrix(1.25,0,0,-1.25,622.18544,920.48506)">
      <path
         d="M 0,0 C 0.048,1.771 0.095,3.541 0.144,5.312 0.153,5.641 0.329,5.841 0.602,5.844 0.867,5.848 1.078,5.65 1.089,5.382 1.104,4.996 1.119,4.61 1.13,4.224 1.18,2.495 1.229,0.765 1.278,-0.965 1.308,-2.009 1.342,-3.054 1.364,-4.098 1.375,-4.607 1.31,-5.114 1.283,-5.621 1.244,-6.351 1.19,-7.081 1.143,-7.81 1.124,-8.1 1.108,-8.391 1.086,-8.68 1.068,-8.914 0.866,-9.097 0.632,-9.101 0.373,-9.104 0.173,-8.945 0.154,-8.697 0.116,-8.19 0.086,-7.682 0.057,-7.174 c -0.054,0.929 -0.107,1.858 -0.156,2.788 -0.03,0.573 0.026,1.144 0.037,1.716 C -0.046,-1.78 -0.02,-0.89 0.001,0 0.001,0 0,0 0,0"
         style="fill:#000102;fill-opacity:1;fill-rule:nonzero;stroke:none"
         id="path8744"
         inkscape:connector-curvature="0" />
    </g>
    <g
       id="g8746"
       transform="matrix(1.25,0,0,-1.25,619.97682,920.42566)">
      <path
         d="M 0,0 C 0.056,2.03 0.103,3.769 0.153,5.507 0.162,5.836 0.349,6.032 0.627,6.014 0.796,6.004 0.959,5.87 1.003,5.707 1.043,5.56 1.039,5.41 1.043,5.26 1.112,3.045 1.184,0.83 1.246,-1.386 1.274,-2.407 1.357,-3.429 1.318,-4.45 1.283,-5.344 1.2,-6.235 1.139,-7.128 1.106,-7.617 1.076,-8.106 1.042,-8.596 1.029,-8.798 1.001,-8.991 0.793,-9.106 0.569,-9.23 0.243,-9.103 0.18,-8.853 c -0.039,0.151 -0.04,0.306 -0.049,0.46 -0.063,1.084 -0.116,2.168 -0.195,3.25 -0.072,0.982 -0.025,1.961 0.006,2.941 C -0.033,-1.371 -0.033,-0.539 0,0"
         style="fill:#000102;fill-opacity:1;fill-rule:nonzero;stroke:none"
         id="path8748"
         inkscape:connector-curvature="0" />
    </g>
    <g
       id="g8750"
       transform="matrix(1.25,0,0,-1.25,619.21606,920.08216)">
      <path
         d="M 0,0 C 0.049,-1.48 0.103,-2.96 0.144,-4.44 0.157,-4.894 0.088,-5.346 0.06,-5.799 0.019,-6.447 -0.034,-7.095 -0.082,-7.742 -0.116,-8.186 -0.149,-8.63 -0.187,-9.073 -0.204,-9.267 -0.37,-9.416 -0.559,-9.422 c -0.206,-0.007 -0.376,0.121 -0.403,0.326 -0.061,0.459 -0.069,0.923 -0.101,1.385 -0.069,1.011 -0.134,2.021 -0.2,3.032 -0.007,0.109 -0.011,0.218 -0.008,0.327 0.067,2.111 0.136,4.222 0.203,6.333 0.031,0.976 0.058,1.952 0.089,2.928 0.009,0.276 0.122,0.429 0.33,0.463 0.243,0.039 0.448,-0.114 0.463,-0.361 C -0.164,4.639 -0.151,4.267 -0.138,3.895 -0.092,2.596 -0.049,1.298 -0.005,0 -0.003,0 -0.002,0 0,0"
         style="fill:#000102;fill-opacity:1;fill-rule:nonzero;stroke:none"
         id="path8752"
         inkscape:connector-curvature="0" />
    </g>
    <g
       id="g8754"
       transform="matrix(1.25,0,0,-1.25,615.62956,920.34116)">
      <path
         d="M 0,0 C 0.055,1.48 0.11,2.959 0.166,4.439 0.175,4.666 0.321,4.818 0.526,4.82 0.728,4.822 0.877,4.67 0.887,4.441 0.931,3.434 0.973,2.427 1.015,1.419 1.071,0.058 1.126,-1.303 1.183,-2.665 1.204,-3.182 1.236,-3.699 1.246,-4.217 1.251,-4.465 1.219,-4.715 1.2,-4.964 1.117,-6 1.034,-7.037 0.95,-8.073 0.929,-8.34 0.909,-8.607 0.886,-8.874 0.867,-9.087 0.723,-9.223 0.524,-9.221 0.326,-9.22 0.181,-9.078 0.167,-8.869 c -0.092,1.337 -0.174,2.674 -0.279,4.009 -0.076,0.974 0.029,1.942 0.049,2.913 0.014,0.649 0.043,1.298 0.066,1.947 L 0,0 Z"
         style="fill:#000102;fill-opacity:1;fill-rule:nonzero;stroke:none"
         id="path8756"
         inkscape:connector-curvature="0" />
    </g>
    <g
       id="g8758"
       transform="matrix(1.25,0,0,-1.25,614.75456,921.32986)">
      <path
         d="M 0,0 C 0.058,-1.12 0.119,-2.24 0.173,-3.36 0.195,-3.82 0.116,-4.275 0.084,-4.732 0.047,-5.284 -0.009,-5.836 -0.054,-6.388 -0.098,-6.917 -0.136,-7.447 -0.182,-7.976 -0.192,-8.082 -0.196,-8.191 -0.264,-8.287 -0.345,-8.401 -0.451,-8.44 -0.583,-8.42 c -0.125,0.018 -0.2,0.101 -0.24,0.214 -0.022,0.063 -0.033,0.133 -0.038,0.2 -0.08,1.123 -0.158,2.246 -0.238,3.369 -0.025,0.349 -0.055,0.697 -0.085,1.046 -0.014,0.159 0.011,0.317 0.019,0.476 0.046,1.034 0.092,2.068 0.139,3.102 0.054,1.162 0.109,2.323 0.165,3.484 0.006,0.122 0.006,0.246 0.09,0.349 0.077,0.096 0.175,0.149 0.296,0.125 C -0.346,3.92 -0.251,3.842 -0.218,3.711 -0.197,3.624 -0.187,3.532 -0.182,3.442 -0.121,2.294 -0.062,1.147 -0.003,0 -0.002,0 -0.001,0 0,0"
         style="fill:#000102;fill-opacity:1;fill-rule:nonzero;stroke:none"
         id="path8760"
         inkscape:connector-curvature="0" />
    </g>
    <g
       id="g8762"
       transform="matrix(1.25,0,0,-1.25,611.12406,925.67556)">
      <path
         d="M 0,0 C 0.027,0.345 0.055,0.735 0.087,1.124 0.153,1.929 0.22,2.735 0.287,3.54 0.308,3.803 0.326,4.066 0.349,4.328 0.366,4.515 0.492,4.646 0.646,4.644 0.807,4.643 0.923,4.506 0.94,4.313 1.005,3.603 1.075,2.893 1.14,2.184 1.207,1.46 1.282,0.737 1.329,0.013 1.354,-0.363 1.277,-0.738 1.247,-1.114 1.186,-1.874 1.114,-2.633 1.046,-3.393 1.01,-3.809 0.974,-4.226 0.935,-4.641 0.921,-4.788 0.811,-4.893 0.67,-4.907 0.533,-4.92 0.422,-4.844 0.372,-4.7 0.358,-4.658 0.35,-4.612 0.347,-4.568 0.239,-3.196 0.131,-1.824 0.025,-0.453 0.014,-0.317 0.01,-0.181 0,0"
         style="fill:#000102;fill-opacity:1;fill-rule:nonzero;stroke:none"
         id="path8764"
         inkscape:connector-curvature="0" />
    </g>
    <g
       id="g8766"
       transform="matrix(1.25,0,0,-1.25,610.63319,925.68176)">
      <path
         d="m 0,0 c -0.036,-0.4 -0.07,-0.784 -0.106,-1.168 -0.046,-0.488 -0.096,-0.976 -0.142,-1.464 -0.059,-0.637 -0.115,-1.274 -0.176,-1.911 -0.018,-0.183 -0.124,-0.29 -0.268,-0.286 -0.137,0.003 -0.239,0.111 -0.254,0.286 -0.06,0.705 -0.116,1.411 -0.174,2.117 -0.063,0.773 -0.132,1.546 -0.189,2.32 -0.019,0.267 0.026,0.534 0.046,0.801 0.044,0.579 0.095,1.158 0.141,1.737 0.06,0.742 0.116,1.484 0.176,2.226 0.01,0.123 0.054,0.234 0.185,0.275 0.098,0.03 0.191,0.011 0.261,-0.07 0.055,-0.065 0.071,-0.145 0.079,-0.228 0.096,-1.085 0.192,-2.17 0.29,-3.254 C -0.089,0.915 -0.043,0.45 0,0"
         style="fill:#000102;fill-opacity:1;fill-rule:nonzero;stroke:none"
         id="path8768"
         inkscape:connector-curvature="0" />
    </g>
    <g
       id="g8770"
       transform="matrix(1.25,0,0,-1.25,608.48331,925.69666)">
      <path
         d="m 0,0 c -0.044,-0.437 -0.086,-0.862 -0.129,-1.286 -0.065,-0.627 -0.133,-1.254 -0.197,-1.882 -0.042,-0.406 -0.078,-0.813 -0.122,-1.219 -0.024,-0.218 -0.193,-0.32 -0.343,-0.216 -0.057,0.039 -0.079,0.093 -0.092,0.159 -0.052,0.269 -0.055,0.542 -0.081,0.813 -0.088,0.899 -0.161,1.799 -0.241,2.699 -0.026,0.285 -0.071,0.569 -0.078,0.854 -0.006,0.252 0.027,0.506 0.048,0.759 0.047,0.543 0.097,1.085 0.144,1.628 0.065,0.727 0.128,1.455 0.193,2.183 0.004,0.05 0.01,0.1 0.023,0.148 0.025,0.093 0.089,0.148 0.185,0.154 C -0.596,4.8 -0.52,4.763 -0.485,4.67 -0.467,4.624 -0.452,4.575 -0.447,4.526 -0.349,3.528 -0.254,2.53 -0.156,1.532 -0.112,1.08 -0.061,0.629 -0.014,0.178 -0.008,0.114 -0.004,0.051 0,0"
         style="fill:#000102;fill-opacity:1;fill-rule:nonzero;stroke:none"
         id="path8772"
         inkscape:connector-curvature="0" />
    </g>
    <g
       id="g8774"
       transform="matrix(1.25,0,0,-1.25,604.77319,925.68436)">
      <path
         d="M 0,0 C 0.032,0.308 0.064,0.628 0.099,0.949 0.164,1.54 0.231,2.131 0.295,2.722 0.335,3.087 0.371,3.453 0.414,3.818 0.426,3.927 0.468,4.027 0.605,4.022 0.739,4.018 0.773,3.922 0.787,3.809 0.89,2.985 0.995,2.161 1.098,1.337 1.153,0.901 1.214,0.464 1.257,0.027 1.27,-0.106 1.236,-0.244 1.218,-0.378 1.136,-1.017 1.051,-1.656 0.969,-2.295 0.908,-2.763 0.849,-3.231 0.79,-3.7 0.787,-3.722 0.788,-3.745 0.784,-3.768 0.767,-3.873 0.731,-3.965 0.604,-3.968 0.477,-3.971 0.431,-3.88 0.415,-3.775 0.39,-3.609 0.376,-3.442 0.357,-3.275 0.251,-2.328 0.144,-1.381 0.039,-0.434 0.023,-0.294 0.014,-0.153 0,0"
         style="fill:#000102;fill-opacity:1;fill-rule:nonzero;stroke:none"
         id="path8776"
         inkscape:connector-curvature="0" />
    </g>
    <g
       id="g8778"
       transform="matrix(1.25,0,0,-1.25,604.20569,925.73956)">
      <path
         d="m 0,0 c -0.047,-0.302 -0.096,-0.62 -0.146,-0.938 -0.064,-0.407 -0.129,-0.814 -0.195,-1.221 -0.01,-0.062 -0.02,-0.125 -0.036,-0.186 -0.023,-0.086 -0.074,-0.149 -0.172,-0.144 -0.102,0.006 -0.153,0.079 -0.166,0.17 -0.042,0.273 -0.076,0.548 -0.112,0.822 -0.063,0.476 -0.124,0.953 -0.188,1.429 -0.009,0.068 -0.008,0.134 10e-4,0.202 0.082,0.62 0.161,1.241 0.241,1.861 0.018,0.14 0.033,0.28 0.057,0.418 0.015,0.09 0.056,0.164 0.162,0.171 0.108,0.007 0.16,-0.057 0.18,-0.149 C -0.349,2.32 -0.333,2.203 -0.315,2.087 -0.213,1.433 -0.112,0.779 -0.011,0.126 -0.006,0.09 -0.005,0.053 0,0"
         style="fill:#000102;fill-opacity:1;fill-rule:nonzero;stroke:none"
         id="path8780"
         inkscape:connector-curvature="0" />
    </g>
    <g
       id="g8782"
       transform="matrix(1.25,0,0,-1.25,630.73281,925.01306)">
      <path
         d="m 0,0 c 0.001,0.634 -0.02,1.267 -0.047,1.901 -0.035,0.842 -0.011,1.685 -0.054,2.528 -0.042,0.819 -0.02,1.64 -0.052,2.46 -0.036,0.928 -0.02,1.858 -0.061,2.786 -0.021,0.472 0.002,0.945 -0.008,1.417 -0.003,0.179 0.005,0.37 -0.077,0.532 -0.125,0.247 -0.417,0.401 -0.724,0.255 C -1.175,11.806 -1.29,11.676 -1.304,11.505 -1.331,11.158 -1.35,10.81 -1.357,10.462 -1.374,9.515 -1.367,8.568 -1.409,7.621 -1.448,6.752 -1.426,5.882 -1.462,5.011 -1.501,4.052 -1.473,3.09 -1.521,2.129 -1.548,1.577 -1.526,1.021 -1.526,0.467 c 0,-0.058 -0.012,-0.117 -0.015,-0.175 -0.018,-0.307 -0.063,-0.619 -0.028,-0.921 0.056,-0.495 0.032,-0.993 0.095,-1.487 0.02,-0.156 -0.016,-0.321 0.009,-0.476 0.079,-0.479 0.035,-0.965 0.098,-1.446 0.03,-0.231 -0.011,-0.471 0.035,-0.704 0.022,-0.112 0.001,-0.23 0.038,-0.335 0.077,-0.215 0.253,-0.335 0.467,-0.36 0.206,-0.025 0.377,0.084 0.492,0.256 0.093,0.139 0.102,0.306 0.114,0.466 0.013,0.181 -0.018,0.367 0.011,0.544 0.072,0.439 0.031,0.885 0.097,1.324 0.023,0.151 -0.01,0.31 0.009,0.462 0.065,0.525 0.073,1.054 0.101,1.581 C 0.012,-0.537 0,-0.268 0,0 m -1.495,5.085 c 0.04,2.061 0.08,4.123 0.119,6.184 0.005,0.276 0.073,0.517 0.342,0.645 0.396,0.189 0.827,-0.091 0.838,-0.545 0.022,-0.876 0.039,-1.752 0.058,-2.628 C -0.085,6.293 -0.031,3.846 0.023,1.399 0.036,0.786 0.061,0.173 0.06,-0.44 0.059,-0.834 0.022,-1.229 -0.001,-1.623 c -0.053,-0.902 -0.101,-1.804 -0.165,-2.706 -0.018,-0.251 0.011,-0.509 -0.072,-0.756 -0.084,-0.248 -0.309,-0.396 -0.59,-0.387 -0.238,0.008 -0.455,0.189 -0.514,0.432 -0.016,0.066 -0.029,0.134 -0.033,0.201 -0.043,0.784 -0.084,1.569 -0.126,2.353 -0.024,0.44 -0.041,0.881 -0.076,1.32 -0.062,0.794 -0.008,1.588 0.005,2.383 0.014,0.894 0.037,1.788 0.052,2.683 0.007,0.395 0.001,0.79 0.001,1.185 0.008,0 0.016,0 0.024,0"
         style="fill:#000102;fill-opacity:1;fill-rule:nonzero;stroke:none"
         id="path8784"
         inkscape:connector-curvature="0" />
    </g>
    <g
       id="g8786"
       transform="matrix(1.25,0,0,-1.25,630.73281,925.01306)">
      <path
         d="m 0,0 c 0,-0.268 0.012,-0.537 -0.003,-0.804 -0.028,-0.527 -0.036,-1.056 -0.101,-1.581 -0.019,-0.152 0.014,-0.311 -0.009,-0.462 -0.066,-0.439 -0.025,-0.885 -0.097,-1.324 -0.029,-0.177 0.002,-0.363 -0.011,-0.544 -0.012,-0.16 -0.021,-0.327 -0.114,-0.466 -0.115,-0.172 -0.286,-0.281 -0.492,-0.256 -0.214,0.025 -0.39,0.145 -0.467,0.36 -0.037,0.105 -0.016,0.223 -0.038,0.335 -0.046,0.233 -0.005,0.473 -0.035,0.704 -0.063,0.481 -0.019,0.967 -0.098,1.446 -0.025,0.155 0.011,0.32 -0.009,0.476 -0.063,0.494 -0.039,0.992 -0.095,1.487 -0.035,0.302 0.01,0.614 0.028,0.921 0.003,0.058 0.015,0.117 0.015,0.175 0,0.554 -0.022,1.11 0.005,1.662 0.048,0.961 0.02,1.923 0.059,2.882 0.036,0.871 0.014,1.741 0.053,2.61 0.042,0.947 0.035,1.894 0.052,2.841 0.007,0.348 0.026,0.696 0.053,1.043 0.014,0.171 0.129,0.301 0.281,0.374 0.307,0.146 0.599,-0.008 0.724,-0.255 0.082,-0.162 0.074,-0.353 0.077,-0.532 0.01,-0.472 -0.013,-0.945 0.008,-1.417 0.041,-0.928 0.025,-1.858 0.061,-2.786 0.032,-0.82 0.01,-1.641 0.052,-2.46 C -0.058,3.586 -0.082,2.743 -0.047,1.901 -0.02,1.267 0.001,0.634 0,0"
         style="fill:#000102;fill-opacity:1;fill-rule:nonzero;stroke:none"
         id="path8788"
         inkscape:connector-curvature="0" />
    </g>
    <g
       id="g8790"
       transform="matrix(1.25,0,0,-1.25,629.30269,911.01276)">
      <path
         d="m 0,0 0,-15.639 c 0,-0.366 0.732,-0.244 0.732,0.063 l 0,15.639 C 0.732,0.428 0,0.306 0,0"
         style="fill:#f26606;fill-opacity:1;fill-rule:nonzero;stroke:none"
         id="path8792"
         inkscape:connector-curvature="0" />
    </g>
    <g
       id="g8794"
       transform="matrix(1.25,0,0,-1.25,627.06844,912.12986)">
      <path
         d="m 0,0 0,-14.857 c 0,-0.366 0.732,-0.244 0.732,0.063 l 0,14.857 C 0.732,0.428 0,0.306 0,0"
         style="fill:#f26606;fill-opacity:1;fill-rule:nonzero;stroke:none"
         id="path8796"
         inkscape:connector-curvature="0" />
    </g>
    <g
       id="g8798"
       transform="matrix(1.25,0,0,-1.25,639.21044,933.62926)">
      <path
         d="M 0,0 C 0.404,0 0.565,0.502 0.072,0.502 -0.332,0.502 -0.493,0 0,0"
         style="fill:#0321f4;fill-opacity:1;fill-rule:nonzero;stroke:none"
         id="path8800"
         inkscape:connector-curvature="0" />
    </g>
    <g
       id="g8802"
       transform="matrix(1.25,0,0,-1.25,624.83419,914.25926)">
      <path
         d="m 0,0 0,-13.042 c 0,-0.365 0.732,-0.243 0.732,0.063 l 0,13.042 C 0.732,0.428 0,0.306 0,0"
         style="fill:#f26606;fill-opacity:1;fill-rule:nonzero;stroke:none"
         id="path8804"
         inkscape:connector-curvature="0" />
    </g>
    <g
       id="g8806"
       transform="matrix(1.25,0,0,-1.25,607.17844,920.69206)">
      <path
         d="m 0,0 0,-7.447 c 0,-0.373 0.733,-0.256 0.733,0.059 l 0,7.447 C 0.733,0.432 0,0.315 0,0"
         style="fill:#f26606;fill-opacity:1;fill-rule:nonzero;stroke:none"
         id="path8808"
         inkscape:connector-curvature="0" />
    </g>
    <g
       id="g8810"
       transform="matrix(1.25,0,0,-1.25,622.60019,914.18956)">
      <path
         d="m 0,0 0,-13.098 c 0,-0.365 0.732,-0.243 0.732,0.063 l 0,13.098 C 0.732,0.428 0,0.306 0,0"
         style="fill:#f26606;fill-opacity:1;fill-rule:nonzero;stroke:none"
         id="path8812"
         inkscape:connector-curvature="0" />
    </g>
    <g
       id="g8814"
       transform="matrix(1.25,0,0,-1.25,605.05832,921.36326)">
      <path
         d="m 0,0 0,-6.912 c 0,-0.365 0.732,-0.243 0.732,0.063 l 0,6.912 C 0.732,0.428 0,0.306 0,0"
         style="fill:#f26606;fill-opacity:1;fill-rule:nonzero;stroke:none"
         id="path8816"
         inkscape:connector-curvature="0" />
    </g>
    <g
       id="g8818"
       transform="matrix(1.25,0,0,-1.25,620.36594,913.63106)">
      <path
         d="m 0,0 0,-13.545 c 0,-0.365 0.732,-0.243 0.732,0.063 l 0,13.545 C 0.732,0.428 0,0.306 0,0"
         style="fill:#f26606;fill-opacity:1;fill-rule:nonzero;stroke:none"
         id="path8820"
         inkscape:connector-curvature="0" />
    </g>
    <g
       id="g8822"
       transform="matrix(1.25,0,0,-1.25,618.13169,914.11966)">
      <path
         d="m 0,0 0,-13.154 c 0,-0.365 0.732,-0.243 0.732,0.063 l 0,13.154 C 0.732,0.428 0,0.306 0,0"
         style="fill:#f26606;fill-opacity:1;fill-rule:nonzero;stroke:none"
         id="path8824"
         inkscape:connector-curvature="0" />
    </g>
    <g
       id="g8826"
       transform="matrix(1.25,0,0,-1.25,615.85394,915.06226)">
      <path
         d="m 0,0 0,-12.4 c 0,-0.365 0.732,-0.243 0.732,0.063 l 0,12.4 C 0.732,0.428 0,0.306 0,0"
         style="fill:#f26606;fill-opacity:1;fill-rule:nonzero;stroke:none"
         id="path8828"
         inkscape:connector-curvature="0" />
    </g>
    <g
       id="g8830"
       transform="matrix(1.25,0,0,-1.25,613.61969,917.12186)">
      <path
         d="m 0,0 0,-10.752 c 0,-0.365 0.732,-0.243 0.732,0.063 l 0,10.752 C 0.732,0.428 0,0.306 0,0"
         style="fill:#f26606;fill-opacity:1;fill-rule:nonzero;stroke:none"
         id="path8832"
         inkscape:connector-curvature="0" />
    </g>
    <g
       id="g8834"
       transform="matrix(1.25,0,0,-1.25,611.49031,920.61276)">
      <path
         d="m 0,0 0,-7.959 c 0,-0.366 0.732,-0.244 0.732,0.063 l 0,7.959 C 0.732,0.428 0,0.306 0,0"
         style="fill:#f26606;fill-opacity:1;fill-rule:nonzero;stroke:none"
         id="path8836"
         inkscape:connector-curvature="0" />
    </g>
    <g
       id="g8838"
       transform="matrix(1.25,0,0,-1.25,609.31719,920.33356)">
      <path
         d="m 0,0 0,-8.183 c 0,-0.365 0.732,-0.243 0.732,0.063 l 0,8.183 C 0.732,0.428 0,0.306 0,0"
         style="fill:#f26606;fill-opacity:1;fill-rule:nonzero;stroke:none"
         id="path8840"
         inkscape:connector-curvature="0" />
    </g>
    <g
       id="g8842"
       transform="matrix(1.25,0,0,-1.25,603.05106,923.30076)">
      <path
         d="m 0,0 0,-3.875 c 0,-0.365 0.732,-0.243 0.732,0.063 l 0,3.875 C 0.732,0.428 0,0.306 0,0"
         style="fill:#f26606;fill-opacity:1;fill-rule:nonzero;stroke:none"
         id="path8844"
         inkscape:connector-curvature="0" />
    </g>
    <g
       id="g8846"
       transform="matrix(1.25,0,0,-1.25,631.99419,910.41486)">
      <path
         d="m 0,0 c -0.093,-0.13 0,-15.472 0,-15.639 0,-0.484 0.056,-0.671 0.223,-0.671 0.168,0 13.778,-0.055 14.299,0 0.522,0.056 1.322,0.149 2.151,0.559 0.717,0.355 1.064,0.937 1.228,1.117 0.475,0.521 0.706,1.056 0.848,1.396 0.316,0.764 0.335,1.118 0.26,1.564 -0.029,0.175 -0.037,0.429 -0.205,0.931 -0.203,0.609 -0.439,0.989 -0.614,1.285 -0.175,0.295 -0.559,0.717 -0.726,0.894 -0.168,0.177 -0.633,0.614 -1.154,0.8 -0.212,0.076 -0.493,0.19 -0.838,0.224 -0.764,0.074 -1.034,0 -1.034,0 0,0 -0.251,0.018 -0.726,-0.056 -0.29,-0.046 -0.959,-0.335 -0.959,-0.335 l -0.828,-0.391 c 0,0 -0.065,0.931 -0.112,1.201 -0.046,0.27 -0.363,1.396 -0.363,1.396 0,0 -0.409,1.238 -0.502,1.424 -0.205,0.41 -0.724,1.306 -0.801,1.415 C 9.924,-2.569 9.47,-1.98 9.3,-1.787 8.937,-1.378 8.769,-1.136 8.294,-0.81 7.82,-0.484 7.094,-0.093 6.786,0.056 6.479,0.205 5.474,0.541 5.167,0.614 4.617,0.745 4.123,0.773 3.835,0.801 3.258,0.856 2.56,0.801 2.234,0.782 1.908,0.763 1.081,0.648 0.922,0.586 0.465,0.41 0.093,0.13 0,0"
         style="fill:#f26606;fill-opacity:1;fill-rule:nonzero;stroke:none"
         id="path8848"
         inkscape:connector-curvature="0" />
    </g>
    <g
       id="g8850"
       transform="matrix(1.25,0,0,-1.25,633.98744,891.29266)">
      <path
         d="M 0,0 C 3.931,-1.638 8.276,-2.446 11.404,-5.692 11.144,-5.928 10.883,-6.165 10.622,-6.402 0.585,0.423 -9.451,0.434 -19.487,-6.403 l -0.784,0.711 C -17.318,-2.588 -13.114,-1.853 -9.5,0 L 0,0 Z"
         style="fill:#f26606;fill-opacity:1;fill-rule:nonzero;stroke:none"
         id="path8852"
         inkscape:connector-curvature="0" />
    </g>
    <g
       id="g8854"
       transform="matrix(1.25,0,0,-1.25,652.99944,903.16206)">
      <path
         d="m 0,0 c 3.234,-3.135 4.076,-7.463 5.691,-11.405 l 0,-9.5 c -1.848,-3.616 -2.594,-7.815 -5.69,-10.772 -0.237,0.261 -0.475,0.522 -0.712,0.784 6.854,10.036 6.854,20.072 -0.002,30.108 C -0.475,-0.523 -0.238,-0.262 0,0"
         style="fill:#f26606;fill-opacity:1;fill-rule:nonzero;stroke:none"
         id="path8856"
         inkscape:connector-curvature="0" />
    </g>
    <g
       id="g8858"
       transform="matrix(1.25,0,0,-1.25,603.88844,942.75926)">
      <path
         d="M 0,0 C -7.676,9.062 -7.676,22.605 0,31.679 0.239,31.416 0.477,31.152 0.716,30.889 -6.125,20.856 -6.122,10.823 0.716,0.79 L 0,0 Z"
         style="fill:#f26606;fill-opacity:1;fill-rule:nonzero;stroke:none"
         id="path8860"
         inkscape:connector-curvature="0" />
    </g>
    <g
       id="g8862"
       transform="matrix(1.25,0,0,-1.25,648.23869,947.50416)">
      <path
         d="m 0,0 c -9.057,-7.673 -22.591,-7.673 -31.669,0 0.267,0.238 0.535,0.477 0.802,0.715 10.022,-6.849 20.043,-6.85 30.065,0 C -0.535,0.477 -0.267,0.238 0,0"
         style="fill:#f26606;fill-opacity:1;fill-rule:nonzero;stroke:none"
         id="path8864"
         inkscape:connector-curvature="0" />
    </g>
    <g
       id="g8866"
       transform="matrix(1.25,0,0,-1.25,604.78319,904.14836)">
      <path
         d="M 0,0 C -0.239,0.264 -0.477,0.527 -0.716,0.791 0.258,2.354 1.528,3.621 3.092,4.592 3.354,4.355 3.615,4.118 3.876,3.881 2.584,2.588 1.292,1.294 0,0"
         style="fill:#f26606;fill-opacity:1;fill-rule:nonzero;stroke:none"
         id="path8868"
         inkscape:connector-curvature="0" />
    </g>
    <g
       id="g8870"
       transform="matrix(1.25,0,0,-1.25,609.65494,946.61006)">
      <path
         d="m 0,0 c -0.267,-0.238 -0.535,-0.477 -0.802,-0.715 -1.552,0.982 -2.846,2.224 -3.811,3.796 0.238,0.263 0.477,0.526 0.716,0.79 C -2.598,2.58 -1.299,1.29 0,0"
         style="fill:#f26606;fill-opacity:1;fill-rule:nonzero;stroke:none"
         id="path8872"
         inkscape:connector-curvature="0" />
    </g>
    <g
       id="g8874"
       transform="matrix(1.25,0,0,-1.25,648.23869,947.50416)">
      <path
         d="M 0,0 C -0.267,0.238 -0.535,0.477 -0.802,0.715 0.498,2.004 1.797,3.292 3.097,4.581 3.335,4.319 3.572,4.058 3.81,3.796 2.846,2.223 1.552,0.983 0,0"
         style="fill:#f26606;fill-opacity:1;fill-rule:nonzero;stroke:none"
         id="path8876"
         inkscape:connector-curvature="0" />
    </g>
    <g
       id="g8878"
       transform="matrix(1.25,0,0,-1.25,652.99944,903.16206)">
      <path
         d="m 0,0 c -0.238,-0.262 -0.475,-0.523 -0.713,-0.785 -1.291,1.293 -2.583,2.586 -3.875,3.879 0.261,0.236 0.522,0.473 0.783,0.71 C -2.243,2.83 -0.969,1.568 0,0"
         style="fill:#f26606;fill-opacity:1;fill-rule:nonzero;stroke:none"
         id="path8880"
         inkscape:connector-curvature="0" />
    </g>
  </g>
</svg>
