<?xml version="1.0" encoding="UTF-8" standalone="no"?>
<!-- Created with Inkscape (http://www.inkscape.org/) -->
<svg id="svg45767" xmlns:rdf="http://www.w3.org/1999/02/22-rdf-syntax-ns#" xmlns="http://www.w3.org/2000/svg" height="17.162mm" width="17.162mm" version="1.1" xmlns:cc="http://creativecommons.org/ns#" xmlns:dc="http://purl.org/dc/elements/1.1/" viewBox="0 0 60.810495 60.81055">
 <metadata id="metadata45772">
  <rdf:RDF>
   <cc:Work rdf:about="">
    <dc:format>image/svg+xml</dc:format>
    <dc:type rdf:resource="http://purl.org/dc/dcmitype/StillImage"/>
    <dc:title/>
   </cc:Work>
  </rdf:RDF>
 </metadata>
 <g id="layer1" transform="translate(-560.81 -771.78)">
  <g id="g8634" transform="matrix(1.25 0 0 -1.25 560.81 796.1)">
   <path id="path8636" d="m0 0c1.762 3.479 2.506 7.495 5.463 10.343 0.228-0.252 0.456-0.503 0.684-0.754-6.589-9.636-6.587-19.272 0-28.908-0.228-0.251-0.456-0.502-0.684-0.753-2.968 2.841-3.704 6.862-5.463 10.342v9.73z" fill="#ad0909"/>
  </g>
  <g id="g8638" transform="matrix(1.25 0 0 -1.25 572.2 778.61)">
   <path id="path8640" d="m0 0c2.85 2.952 6.866 3.697 10.343 5.463h9.121c3.78-1.561 7.94-2.362 10.951-5.463-0.249-0.227-0.499-0.455-0.749-0.682-9.638 6.568-19.276 6.575-28.914-0.002-0.251 0.228-0.501 0.456-0.752 0.684" fill="#ad0909"/>
  </g>
  <g id="g8642" transform="matrix(1.25 0 0 -1.25 621.62 808.27)">
   <path id="path8644" d="m0 0c-1.756-3.482-2.508-7.494-5.459-10.345-0.229 0.252-0.458 0.503-0.687 0.754 6.589 9.637 6.589 19.274-0.002 28.91 0.229 0.251 0.457 0.502 0.685 0.753 3.093-3.016 3.919-7.162 5.463-10.95v-9.122z" fill="#ad0909"/>
  </g>
  <g id="g8646" transform="matrix(1.25 0 0 -1.25 585.13 832.59)">
   <path id="path8648" d="m0 0c-3.468 1.783-7.499 2.502-10.337 5.475 0.254 0.227 0.507 0.454 0.76 0.681 9.628-6.599 19.256-6.6 28.883 0 0.254-0.227 0.507-0.454 0.76-0.681-3.003-3.113-7.165-3.913-10.944-5.475h-9.122z" fill="#ad0909"/>
  </g>
  <g id="g8650" transform="matrix(1.25 0 0 -1.25 614.79 783.18)">
   <path id="path8652" d="m0 0c-0.228-0.251-0.456-0.502-0.685-0.753-1.239 1.241-2.478 2.483-3.718 3.725 0.25 0.227 0.5 0.455 0.75 0.682 1.498-0.937 2.724-2.147 3.653-3.654" fill="#ad0909"/>
  </g>
  <g id="g8654" transform="matrix(1.25 0 0 -1.25 610.22 825.75)">
   <path id="path8656" d="m0 0c-0.253 0.227-0.507 0.454-0.76 0.681 1.246 1.237 2.491 2.475 3.737 3.712l0.686-0.754c-0.93-1.505-2.164-2.706-3.663-3.639" fill="#ad0909"/>
  </g>
  <g id="g8658" transform="matrix(1.25 0 0 -1.25 573.16 824.89)">
   <path id="path8660" d="m0 0c-0.253-0.227-0.507-0.454-0.76-0.681-1.498 0.934-2.735 2.131-3.66 3.641 0.228 0.251 0.456 0.503 0.685 0.754l3.735-3.714" fill="#ad0909"/>
  </g>
  <g id="g8662" transform="matrix(1.25 0 0 -1.25 572.2 778.61)">
   <path id="path8664" d="m0 0c0.251-0.228 0.501-0.456 0.752-0.684l-3.721-3.724c-0.229 0.252-0.457 0.503-0.685 0.754 0.929 1.507 2.155 2.718 3.654 3.654" fill="#ad0909"/>
  </g>
  <g id="g8714" transform="matrix(1.25 0 0 -1.25 590.98 789.44)">
   <path id="path8716" d="m0 0c2.194 0 4.387 0.014 6.581-0.006 1.182-0.011 2.364-0.071 3.545-0.129 0.567-0.028 1.136-0.078 1.697-0.164 0.793-0.123 1.348-0.611 1.786-1.241 0.48-0.691 0.721-1.479 0.92-2.279 0.286-1.146 0.387-2.317 0.471-3.491 0.124-1.736 0.079-3.473 0.035-5.208-0.032-1.226-0.15-2.45-0.418-3.653-0.218-0.978-0.481-1.938-1.097-2.771-0.559-0.756-1.314-1.084-2.24-1.193-1.933-0.229-3.878-0.149-5.815-0.273-0.447-0.028-0.898-0.003-1.347-0.003-3.032 0-6.063-0.028-9.094 0.01-1.768 0.023-3.538 0.072-5.302 0.222-0.495 0.042-1.003 0.017-1.482 0.192-0.976 0.358-1.556 1.094-1.953 1.992-0.287 0.647-0.44 1.336-0.581 2.025-0.382 1.862-0.434 3.747-0.405 5.638 0.012 0.847-0.024 1.697 0.026 2.542 0.054 0.927 0.139 1.854 0.272 2.777 0.123 0.858 0.306 1.698 0.642 2.502 0.194 0.465 0.442 0.902 0.753 1.3 0.441 0.563 1.053 0.834 1.753 0.932 1.404 0.196 2.82 0.195 4.233 0.252 2.34 0.095 4.68 0.022 7.02 0.027" fill="#ad0909"/>
  </g>
  <g id="g8718" transform="matrix(1.25 0 0 -1.25 585.6 802.16)">
   <path id="path8720" d="m0 0h0.001c0-1.842 0-3.684 0.001-5.526 0-0.097-0.03-0.213 0.086-0.268 0.105-0.049 0.168 0.047 0.241 0.094 0.401 0.256 0.799 0.518 1.199 0.776 2.424 1.562 4.849 3.125 7.272 4.688 0.26 0.168 0.258 0.235-0.001 0.402-2.82 1.828-5.64 3.657-8.46 5.484-0.083 0.053-0.164 0.149-0.27 0.096-0.112-0.056-0.068-0.179-0.068-0.275-0.001-1.824-0.001-3.647-0.001-5.471"/>
  </g>
  <g id="g8882" transform="matrix(1.25 0 0 -1.25 584.64 802.15)">
   <path id="path8884" d="m0 0h0.001c0-2.155 0-4.31 0.001-6.465 0-0.114-0.035-0.249 0.101-0.313 0.122-0.058 0.197 0.055 0.282 0.11 0.469 0.3 0.935 0.605 1.403 0.907 2.836 1.829 5.672 3.656 8.507 5.485 0.304 0.196 0.301 0.274-0.002 0.471-3.299 2.138-6.598 4.277-9.897 6.415-0.096 0.062-0.191 0.174-0.315 0.112-0.132-0.066-0.079-0.21-0.079-0.322-0.003-2.133-0.002-4.267-0.002-6.4z" stroke="#000" stroke-miterlimit="10" stroke-width=".25" fill="none"/>
  </g>
 </g>
</svg>
