<?xml version="1.0" encoding="UTF-8" standalone="no"?>
<!-- Created with Inkscape (http://www.inkscape.org/) -->
<svg id="svg45767" xmlns:rdf="http://www.w3.org/1999/02/22-rdf-syntax-ns#" xmlns="http://www.w3.org/2000/svg" height="17.162mm" width="17.162mm" version="1.1" xmlns:cc="http://creativecommons.org/ns#" xmlns:dc="http://purl.org/dc/elements/1.1/" viewBox="0 0 60.81038 60.810949">
 <metadata id="metadata45772">
  <rdf:RDF>
   <cc:Work rdf:about="">
    <dc:format>image/svg+xml</dc:format>
    <dc:type rdf:resource="http://purl.org/dc/dcmitype/StillImage"/>
    <dc:title/>
   </cc:Work>
  </rdf:RDF>
 </metadata>
 <g id="layer1" transform="translate(-553.4 -774.18)">
  <g id="g8602" transform="matrix(1.25 0 0 -1.25 553.4 798.51)">
   <path id="path8604" d="m0 0c1.806 3.456 2.435 7.533 5.464 10.343 0.227-0.251 0.455-0.501 0.682-0.751-6.561-9.638-6.563-19.276 0-28.914-0.227-0.25-0.455-0.5-0.682-0.75-3.03 2.809-3.664 6.884-5.464 10.342v9.73z" fill="#0cf"/>
  </g>
  <g id="g8606" transform="matrix(1.25 0 0 -1.25 564.8 781.01)">
   <path id="path8608" d="m0 0c2.8 3.046 6.889 3.653 10.342 5.464h9.122c3.77-1.581 7.964-2.314 10.951-5.463-0.25-0.227-0.5-0.455-0.75-0.682-9.638 6.543-19.276 6.549-28.914-0.001-0.25 0.227-0.501 0.455-0.751 0.682" fill="#0cf"/>
  </g>
  <g id="g8610" transform="matrix(1.25 0 0 -1.25 614.21 810.67)">
   <path id="path8612" d="m0 0c-1.8-3.459-2.424-7.539-5.463-10.343-0.227 0.25-0.455 0.501-0.682 0.751 6.558 9.638 6.562 19.275-0.002 28.912 0.228 0.251 0.456 0.502 0.684 0.753 3.134-2.996 3.904-7.17 5.463-10.951v-9.122z" fill="#0cf"/>
  </g>
  <g id="g8614" transform="matrix(1.25 0 0 -1.25 602.81 828.15)">
   <path id="path8616" d="m0 0c-2.983-3.155-7.175-3.893-10.946-5.473h-9.122c-3.457 1.803-7.524 2.454-10.338 5.473 0.254 0.227 0.508 0.454 0.761 0.682 9.628-6.572 19.257-6.574 28.885 0 0.253-0.227 0.507-0.455 0.76-0.682" fill="#0cf"/>
  </g>
  <g id="g8618" transform="matrix(1.25 0 0 -1.25 607.38 785.58)">
   <path id="path8620" d="m0 0c-0.228-0.251-0.456-0.502-0.684-0.753l-3.719 3.725 0.75 0.681c1.494-0.941 2.715-2.155 3.653-3.653" fill="#0cf"/>
  </g>
  <g id="g8622" transform="matrix(1.25 0 0 -1.25 565.75 827.3)">
   <path id="path8624" d="m0 0c-0.253-0.227-0.507-0.454-0.76-0.682-1.486 0.948-2.731 2.137-3.658 3.645 0.228 0.25 0.455 0.5 0.682 0.75 1.245-1.238 2.491-2.476 3.736-3.713" fill="#0cf"/>
  </g>
  <g id="g8626" transform="matrix(1.25 0 0 -1.25 602.81 828.15)">
   <path id="path8628" d="m0 0c-0.253 0.227-0.507 0.455-0.76 0.682 1.245 1.237 2.491 2.475 3.736 3.713 0.228-0.251 0.455-0.501 0.683-0.752-0.93-1.505-2.172-2.697-3.659-3.643" fill="#0cf"/>
  </g>
  <g id="g8630" transform="matrix(1.25 0 0 -1.25 564.8 781.01)">
   <path id="path8632" d="m0 0c0.25-0.227 0.501-0.455 0.751-0.682l-3.722-3.722c-0.227 0.251-0.454 0.501-0.682 0.751 0.936 1.499 2.157 2.713 3.653 3.653" fill="#0cf"/>
  </g>
  <g id="g8722" transform="matrix(1.25 0 0 -1.25 591.73 792.41)">
   <path id="path8724" d="m0 0h0.487c0.389-0.019 0.774-0.069 1.155-0.155 0.352-0.079 0.695-0.186 1.028-0.321 0.34-0.138 0.668-0.302 0.985-0.489 0.284-0.166 0.56-0.345 0.817-0.55 0.094-0.076 0.177-0.08 0.284-0.062 0.614 0.109 1.215 0.267 1.802 0.478 0.344 0.123 0.683 0.262 1.015 0.417 0.21 0.098 0.415 0.206 0.623 0.306 0.014 0.007 0.027 0.013 0.053 0.025-0.433-1.295-1.342-2.167-2.448-2.875 1.111 0.079 2.181 0.34 3.235 0.696-0.09-0.107-0.178-0.215-0.27-0.321-0.717-0.825-1.521-1.555-2.432-2.163-0.058-0.038-0.116-0.077-0.175-0.113-0.031-0.018-0.043-0.04-0.042-0.076 0.001-0.108 0.002-0.216-0.002-0.323-0.012-0.273-0.021-0.547-0.041-0.819-0.098-1.363-0.36-2.693-0.801-3.987-0.539-1.578-1.317-3.028-2.333-4.35-0.482-0.628-1.01-1.214-1.583-1.76-0.985-0.937-2.073-1.736-3.259-2.4-1.394-0.781-2.87-1.35-4.423-1.722-0.597-0.143-1.2-0.253-1.81-0.331-0.291-0.037-0.582-0.069-0.875-0.094-0.216-0.018-0.432-0.029-0.648-0.042-0.125-0.008-0.25-0.004-0.375-0.011h-0.877c-3.094 0.079-5.982 0.904-8.687 2.396 0.101-0.004 0.203-0.007 0.304-0.014 0.466-0.03 0.933-0.028 1.399-0.02 0.198 0.003 0.395 0.009 0.592 0.024 0.595 0.048 1.189 0.113 1.777 0.224 0.671 0.126 1.328 0.298 1.971 0.527 0.932 0.333 1.808 0.776 2.616 1.349 0.023 0.016 0.045 0.033 0.08 0.059-0.149 0.018-0.282 0.032-0.414 0.05-1.075 0.144-2.096 0.439-2.995 1.072-0.643 0.452-1.143 1.031-1.531 1.712-0.148 0.259-0.276 0.528-0.388 0.805-0.01 0.022-0.014 0.046-0.021 0.07l0.006 0.006c0.147-0.03 0.293-0.063 0.441-0.088 0.691-0.117 1.37-0.084 2.034 0.156 0.019 0.006 0.038 0.014 0.056 0.022 0.006 0.003 0.012 0.006 0.028 0.015-0.111 0.024-0.214 0.045-0.316 0.068-0.98 0.223-1.862 0.641-2.609 1.324-0.821 0.751-1.331 1.679-1.563 2.764-0.072 0.334-0.11 0.671-0.12 1.013-0.001 0.021 0 0.043 0 0.074 0.852-0.376 1.741-0.564 2.663-0.626-0.098 0.073-0.196 0.145-0.292 0.22-0.61 0.473-1.162 1.003-1.598 1.644-0.397 0.584-0.664 1.22-0.756 1.922-0.086 0.654-0.019 1.297 0.165 1.929 0.141 0.482 0.338 0.94 0.577 1.385 0.045-0.045 0.089-0.086 0.13-0.13 0.915-0.98 1.931-1.842 3.054-2.576 1.098-0.717 2.267-1.289 3.5-1.734 0.982-0.355 1.987-0.623 3.012-0.82 0.53-0.103 1.063-0.187 1.6-0.248 0.269-0.031 0.539-0.057 0.808-0.088 0.052-0.006 0.038 0.018 0.028 0.046-0.086 0.257-0.146 0.521-0.183 0.791-0.035 0.261-0.051 0.524-0.03 0.785 0.082 1.041 0.477 1.957 1.142 2.756 0.853 1.026 1.939 1.684 3.229 2.009 0.339 0.085 0.683 0.143 1.034 0.156 0.055 0.002 0.111 0.011 0.167 0.013" fill="#0cf"/>
  </g>
  <g id="g8726" transform="matrix(1.25 0 0 -1.25 569.14 807.63)">
   <path id="path8728" d="m0 0c-0.001 0.004-0.002 0.007-0.004 0.011 0.004-0.002 0.007-0.003 0.01-0.005l-0.006-0.006" fill="#0cf"/>
  </g>
 </g>
</svg>
