<?xml version="1.0" encoding="UTF-8" standalone="no"?>
<!-- Created with Inkscape (http://www.inkscape.org/) -->
<svg id="svg45767" xmlns:rdf="http://www.w3.org/1999/02/22-rdf-syntax-ns#" xmlns="http://www.w3.org/2000/svg" height="17.894mm" width="17.899mm" version="1.1" xmlns:cc="http://creativecommons.org/ns#" xmlns:dc="http://purl.org/dc/elements/1.1/" viewBox="0 0 63.420998 63.404942">
 <metadata id="metadata45772">
  <rdf:RDF>
   <cc:Work rdf:about="">
    <dc:format>image/svg+xml</dc:format>
    <dc:type rdf:resource="http://purl.org/dc/dcmitype/StillImage"/>
    <dc:title/>
   </cc:Work>
  </rdf:RDF>
 </metadata>
 <g id="layer1" transform="translate(-596.69 -891.29)">
  <g id="g8730" transform="matrix(1.25 0 0 -1.25 631.11 920.56)">
   <path id="path8732" d="m0 0c0 2.739 0.004 5.479-0.004 8.218-0.001 0.534 0.118 0.659 0.621 0.847 0.493 0.184 1 0.324 1.516 0.425 0.449 0.088 0.906 0.132 1.364 0.159 0.601 0.036 1.198-0.01 1.791-0.094 0.666-0.094 1.314-0.265 1.942-0.506 1.086-0.416 2.064-1.01 2.927-1.789 1.044-0.943 1.842-2.062 2.385-3.362 0.266-0.634 0.456-1.289 0.579-1.963 0.039-0.214 0.072-0.429 0.087-0.647 0.01-0.15 0.042-0.164 0.183-0.108 0.864 0.342 1.761 0.453 2.672 0.297 1.878-0.322 3.242-1.348 4.055-3.079 0.434-0.924 0.568-1.905 0.415-2.908-0.261-1.697-1.141-2.991-2.624-3.863-0.439-0.258-0.909-0.444-1.409-0.555-0.467-0.104-0.938-0.152-1.417-0.152-3.366 0.003-6.733-0.006-10.099 0.005-1.44 0.005-2.88 0.005-4.32 0.01-0.394 0.002-0.664 0.273-0.664 0.669v8.396" fill="#000102"/>
  </g>
  <g id="g8734" transform="matrix(1.25 0 0 -1.25 626.62 921.62)">
   <path id="path8736" d="m0 0c0.05 2.556 0.1 5.112 0.151 7.668 0.006 0.325 0.237 0.559 0.543 0.559 0.31 0 0.544-0.242 0.551-0.57 0.06-2.946 0.119-5.892 0.182-8.839 0.017-0.781 0.065-1.562 0.032-2.342-0.052-1.211-0.126-2.422-0.19-3.632-0.009-0.168-0.017-0.336-0.024-0.504-0.013-0.315-0.258-0.563-0.553-0.558s-0.527 0.242-0.542 0.554c-0.066 1.361-0.136 2.721-0.198 4.082-0.037 0.808 0.026 1.616 0.032 2.424 0.003 0.386 0.001 0.772 0.001 1.158h0.015" fill="#000102"/>
  </g>
  <g id="g8738" transform="matrix(1.25 0 0 -1.25 624.4 921.58)">
   <path id="path8740" d="m0 0c0.047 1.952 0.093 3.904 0.14 5.856 0.006 0.259 0.158 0.478 0.368 0.531 0.234 0.059 0.457-0.026 0.579-0.223 0.071-0.117 0.081-0.246 0.084-0.38 0.046-1.707 0.093-3.413 0.141-5.12 0.036-1.308 0.089-2.615 0.1-3.922 0.006-0.662-0.065-1.324-0.103-1.986-0.046-0.82-0.094-1.641-0.139-2.461-0.021-0.37-0.288-0.59-0.638-0.521-0.21 0.042-0.378 0.245-0.39 0.482-0.039 0.73-0.075 1.46-0.113 2.19-0.031 0.608-0.064 1.215-0.097 1.823-0.027 0.499-0.005 0.998 0.009 1.498 0.021 0.744 0.037 1.489 0.055 2.233h0.004" fill="#000102"/>
  </g>
  <g id="g8742" transform="matrix(1.25 0 0 -1.25 622.19 920.49)">
   <path id="path8744" d="m0 0c0.048 1.771 0.095 3.541 0.144 5.312 0.009 0.329 0.185 0.529 0.458 0.532 0.265 0.004 0.476-0.194 0.487-0.462 0.015-0.386 0.03-0.772 0.041-1.158 0.05-1.729 0.099-3.459 0.148-5.189 0.03-1.044 0.064-2.089 0.086-3.133 0.011-0.509-0.054-1.016-0.081-1.523-0.039-0.73-0.093-1.46-0.14-2.189-0.019-0.29-0.035-0.581-0.057-0.87-0.018-0.234-0.22-0.417-0.454-0.421-0.259-0.003-0.459 0.156-0.478 0.404-0.038 0.507-0.068 1.015-0.097 1.523-0.054 0.929-0.107 1.858-0.156 2.788-0.03 0.573 0.026 1.144 0.037 1.716 0.016 0.89 0.042 1.78 0.063 2.67h-0.001" fill="#000102"/>
  </g>
  <g id="g8746" transform="matrix(1.25 0 0 -1.25 619.98 920.43)">
   <path id="path8748" d="m0 0c0.056 2.03 0.103 3.769 0.153 5.507 0.009 0.329 0.196 0.525 0.474 0.507 0.169-0.01 0.332-0.144 0.376-0.307 0.04-0.147 0.036-0.297 0.04-0.447 0.069-2.215 0.141-4.43 0.203-6.646 0.028-1.021 0.111-2.043 0.072-3.064-0.035-0.894-0.118-1.785-0.179-2.678-0.033-0.489-0.063-0.978-0.097-1.468-0.013-0.202-0.041-0.395-0.249-0.51-0.224-0.124-0.55 0.003-0.613 0.253-0.039 0.151-0.04 0.306-0.049 0.46-0.063 1.084-0.116 2.168-0.195 3.25-0.072 0.982-0.025 1.961 0.006 2.941 0.025 0.831 0.025 1.663 0.058 2.202" fill="#000102"/>
  </g>
  <g id="g8750" transform="matrix(1.25 0 0 -1.25 619.22 920.08)">
   <path id="path8752" d="m0 0c0.049-1.48 0.103-2.96 0.144-4.44 0.013-0.454-0.056-0.906-0.084-1.359-0.041-0.648-0.094-1.296-0.142-1.943-0.034-0.444-0.067-0.888-0.105-1.331-0.017-0.194-0.183-0.343-0.372-0.349-0.206-0.007-0.376 0.121-0.403 0.326-0.061 0.459-0.069 0.923-0.101 1.385-0.069 1.011-0.134 2.021-0.2 3.032-0.007 0.109-0.011 0.218-0.008 0.327 0.067 2.111 0.136 4.222 0.203 6.333 0.031 0.976 0.058 1.952 0.089 2.928 0.009 0.276 0.122 0.429 0.33 0.463 0.243 0.039 0.448-0.114 0.463-0.361 0.022-0.372 0.035-0.744 0.048-1.116 0.046-1.299 0.089-2.597 0.133-3.895h0.005" fill="#000102"/>
  </g>
  <g id="g8754" transform="matrix(1.25 0 0 -1.25 615.63 920.34)">
   <path id="path8756" d="m0 0c0.055 1.48 0.11 2.959 0.166 4.439 0.009 0.227 0.155 0.379 0.36 0.381 0.202 0.002 0.351-0.15 0.361-0.379 0.044-1.007 0.086-2.014 0.128-3.022 0.056-1.361 0.111-2.722 0.168-4.084 0.021-0.517 0.053-1.034 0.063-1.552 0.005-0.248-0.027-0.498-0.046-0.747-0.083-1.036-0.166-2.073-0.25-3.109-0.021-0.267-0.041-0.534-0.064-0.801-0.019-0.213-0.163-0.349-0.362-0.347-0.198 0.001-0.343 0.143-0.357 0.352-0.092 1.337-0.174 2.674-0.279 4.009-0.076 0.974 0.029 1.942 0.049 2.913 0.014 0.649 0.043 1.298 0.066 1.947h-0.003z" fill="#000102"/>
  </g>
  <g id="g8758" transform="matrix(1.25 0 0 -1.25 614.75 921.33)">
   <path id="path8760" d="m0 0c0.058-1.12 0.119-2.24 0.173-3.36 0.022-0.46-0.057-0.915-0.089-1.372-0.037-0.552-0.093-1.104-0.138-1.656-0.044-0.529-0.082-1.059-0.128-1.588-0.01-0.106-0.014-0.215-0.082-0.311-0.081-0.114-0.187-0.153-0.319-0.133-0.125 0.018-0.2 0.101-0.24 0.214-0.022 0.063-0.033 0.133-0.038 0.2-0.08 1.123-0.158 2.246-0.238 3.369-0.025 0.349-0.055 0.697-0.085 1.046-0.014 0.159 0.011 0.317 0.019 0.476 0.046 1.034 0.092 2.068 0.139 3.102 0.054 1.162 0.109 2.323 0.165 3.484 0.006 0.122 0.006 0.246 0.09 0.349 0.077 0.096 0.175 0.149 0.296 0.125 0.129-0.025 0.224-0.103 0.257-0.234 0.021-0.087 0.031-0.179 0.036-0.269 0.061-1.148 0.12-2.295 0.179-3.442h0.003" fill="#000102"/>
  </g>
  <g id="g8762" transform="matrix(1.25 0 0 -1.25 611.12 925.68)">
   <path id="path8764" d="m0 0c0.027 0.345 0.055 0.735 0.087 1.124 0.066 0.805 0.133 1.611 0.2 2.416 0.021 0.263 0.039 0.526 0.062 0.788 0.017 0.187 0.143 0.318 0.297 0.316 0.161-0.001 0.277-0.138 0.294-0.331 0.065-0.71 0.135-1.42 0.2-2.129 0.067-0.724 0.142-1.447 0.189-2.171 0.025-0.376-0.052-0.751-0.082-1.127-0.061-0.76-0.133-1.519-0.201-2.279-0.036-0.416-0.072-0.833-0.111-1.248-0.014-0.147-0.124-0.252-0.265-0.266-0.137-0.013-0.248 0.063-0.298 0.207-0.014 0.042-0.022 0.088-0.025 0.132-0.108 1.372-0.216 2.744-0.322 4.115-0.011 0.136-0.015 0.272-0.025 0.453" fill="#000102"/>
  </g>
  <g id="g8766" transform="matrix(1.25 0 0 -1.25 610.63 925.68)">
   <path id="path8768" d="m0 0c-0.036-0.4-0.07-0.784-0.106-1.168-0.046-0.488-0.096-0.976-0.142-1.464-0.059-0.637-0.115-1.274-0.176-1.911-0.018-0.183-0.124-0.29-0.268-0.286-0.137 0.003-0.239 0.111-0.254 0.286-0.06 0.705-0.116 1.411-0.174 2.117-0.063 0.773-0.132 1.546-0.189 2.32-0.019 0.267 0.026 0.534 0.046 0.801 0.044 0.579 0.095 1.158 0.141 1.737 0.06 0.742 0.116 1.484 0.176 2.226 0.01 0.123 0.054 0.234 0.185 0.275 0.098 0.03 0.191 0.011 0.261-0.07 0.055-0.065 0.071-0.145 0.079-0.228 0.096-1.085 0.192-2.17 0.29-3.254 0.042-0.466 0.088-0.931 0.131-1.381" fill="#000102"/>
  </g>
  <g id="g8770" transform="matrix(1.25 0 0 -1.25 608.48 925.7)">
   <path id="path8772" d="m0 0c-0.044-0.437-0.086-0.862-0.129-1.286-0.065-0.627-0.133-1.254-0.197-1.882-0.042-0.406-0.078-0.813-0.122-1.219-0.024-0.218-0.193-0.32-0.343-0.216-0.057 0.039-0.079 0.093-0.092 0.159-0.052 0.269-0.055 0.542-0.081 0.813-0.088 0.899-0.161 1.799-0.241 2.699-0.026 0.285-0.071 0.569-0.078 0.854-0.006 0.252 0.027 0.506 0.048 0.759 0.047 0.543 0.097 1.085 0.144 1.628 0.065 0.727 0.128 1.455 0.193 2.183 0.004 0.05 0.01 0.1 0.023 0.148 0.025 0.093 0.089 0.148 0.185 0.154 0.094 0.006 0.17-0.031 0.205-0.124 0.018-0.046 0.033-0.095 0.038-0.144 0.098-0.998 0.193-1.996 0.291-2.994 0.044-0.452 0.095-0.903 0.142-1.354 0.006-0.064 0.01-0.127 0.014-0.178" fill="#000102"/>
  </g>
  <g id="g8774" transform="matrix(1.25 0 0 -1.25 604.77 925.68)">
   <path id="path8776" d="m0 0c0.032 0.308 0.064 0.628 0.099 0.949 0.065 0.591 0.132 1.182 0.196 1.773 0.04 0.365 0.076 0.731 0.119 1.096 0.012 0.109 0.054 0.209 0.191 0.204 0.134-0.004 0.168-0.1 0.182-0.213 0.103-0.824 0.208-1.648 0.311-2.472 0.055-0.436 0.116-0.873 0.159-1.31 0.013-0.133-0.021-0.271-0.039-0.405-0.082-0.639-0.167-1.278-0.249-1.917-0.061-0.468-0.12-0.936-0.179-1.405-0.003-0.022-0.002-0.045-0.006-0.068-0.017-0.105-0.053-0.197-0.18-0.2s-0.173 0.088-0.189 0.193c-0.025 0.166-0.039 0.333-0.058 0.5-0.106 0.947-0.213 1.894-0.318 2.841-0.016 0.14-0.025 0.281-0.039 0.434" fill="#000102"/>
  </g>
  <g id="g8778" transform="matrix(1.25 0 0 -1.25 604.21 925.74)">
   <path id="path8780" d="m0 0c-0.047-0.302-0.096-0.62-0.146-0.938-0.064-0.407-0.129-0.814-0.195-1.221-0.01-0.062-0.02-0.125-0.036-0.186-0.023-0.086-0.074-0.149-0.172-0.144-0.102 0.006-0.153 0.079-0.166 0.17-0.042 0.273-0.076 0.548-0.112 0.822-0.063 0.476-0.124 0.953-0.188 1.429-0.009 0.068-0.008 0.134 0.001 0.202 0.082 0.62 0.161 1.241 0.241 1.861 0.018 0.14 0.033 0.28 0.057 0.418 0.015 0.09 0.056 0.164 0.162 0.171 0.108 0.007 0.16-0.057 0.18-0.149 0.025-0.115 0.041-0.232 0.059-0.348 0.102-0.654 0.203-1.308 0.304-1.961 0.005-0.036 0.006-0.073 0.011-0.126" fill="#000102"/>
  </g>
  <g id="g8782" transform="matrix(1.25 0 0 -1.25 630.73 925.01)">
   <path id="path8784" d="m0 0c0.001 0.634-0.02 1.267-0.047 1.901-0.035 0.842-0.011 1.685-0.054 2.528-0.042 0.819-0.02 1.64-0.052 2.46-0.036 0.928-0.02 1.858-0.061 2.786-0.021 0.472 0.002 0.945-0.008 1.417-0.003 0.179 0.005 0.37-0.077 0.532-0.125 0.247-0.417 0.401-0.724 0.255-0.152-0.073-0.267-0.203-0.281-0.374-0.027-0.347-0.046-0.695-0.053-1.043-0.017-0.947-0.01-1.894-0.052-2.841-0.039-0.869-0.017-1.739-0.053-2.61-0.039-0.959-0.011-1.921-0.059-2.882-0.027-0.552-0.005-1.108-0.005-1.662 0-0.058-0.012-0.117-0.015-0.175-0.018-0.307-0.063-0.619-0.028-0.921 0.056-0.495 0.032-0.993 0.095-1.487 0.02-0.156-0.016-0.321 0.009-0.476 0.079-0.479 0.035-0.965 0.098-1.446 0.03-0.231-0.011-0.471 0.035-0.704 0.022-0.112 0.001-0.23 0.038-0.335 0.077-0.215 0.253-0.335 0.467-0.36 0.206-0.025 0.377 0.084 0.492 0.256 0.093 0.139 0.102 0.306 0.114 0.466 0.013 0.181-0.018 0.367 0.011 0.544 0.072 0.439 0.031 0.885 0.097 1.324 0.023 0.151-0.01 0.31 0.009 0.462 0.065 0.525 0.073 1.054 0.101 1.581 0.015 0.267 0.003 0.536 0.003 0.804m-1.495 5.085c0.04 2.061 0.08 4.123 0.119 6.184 0.005 0.276 0.073 0.517 0.342 0.645 0.396 0.189 0.827-0.091 0.838-0.545 0.022-0.876 0.039-1.752 0.058-2.628 0.053-2.448 0.107-4.895 0.161-7.342 0.013-0.613 0.038-1.226 0.037-1.839-0.001-0.394-0.038-0.789-0.061-1.183-0.053-0.902-0.101-1.804-0.165-2.706-0.018-0.251 0.011-0.509-0.072-0.756-0.084-0.248-0.309-0.396-0.59-0.387-0.238 0.008-0.455 0.189-0.514 0.432-0.016 0.066-0.029 0.134-0.033 0.201-0.043 0.784-0.084 1.569-0.126 2.353-0.024 0.44-0.041 0.881-0.076 1.32-0.062 0.794-0.008 1.588 0.005 2.383 0.014 0.894 0.037 1.788 0.052 2.683 0.007 0.395 0.001 0.79 0.001 1.185h0.024" fill="#000102"/>
  </g>
  <g id="g8786" transform="matrix(1.25 0 0 -1.25 630.73 925.01)">
   <path id="path8788" d="m0 0c0-0.268 0.012-0.537-0.003-0.804-0.028-0.527-0.036-1.056-0.101-1.581-0.019-0.152 0.014-0.311-0.009-0.462-0.066-0.439-0.025-0.885-0.097-1.324-0.029-0.177 0.002-0.363-0.011-0.544-0.012-0.16-0.021-0.327-0.114-0.466-0.115-0.172-0.286-0.281-0.492-0.256-0.214 0.025-0.39 0.145-0.467 0.36-0.037 0.105-0.016 0.223-0.038 0.335-0.046 0.233-0.005 0.473-0.035 0.704-0.063 0.481-0.019 0.967-0.098 1.446-0.025 0.155 0.011 0.32-0.009 0.476-0.063 0.494-0.039 0.992-0.095 1.487-0.035 0.302 0.01 0.614 0.028 0.921 0.003 0.058 0.015 0.117 0.015 0.175 0 0.554-0.022 1.11 0.005 1.662 0.048 0.961 0.02 1.923 0.059 2.882 0.036 0.871 0.014 1.741 0.053 2.61 0.042 0.947 0.035 1.894 0.052 2.841 0.007 0.348 0.026 0.696 0.053 1.043 0.014 0.171 0.129 0.301 0.281 0.374 0.307 0.146 0.599-0.008 0.724-0.255 0.082-0.162 0.074-0.353 0.077-0.532 0.01-0.472-0.013-0.945 0.008-1.417 0.041-0.928 0.025-1.858 0.061-2.786 0.032-0.82 0.01-1.641 0.052-2.46 0.043-0.843 0.019-1.686 0.054-2.528 0.027-0.634 0.048-1.267 0.047-1.901" fill="#000102"/>
  </g>
  <g id="g8790" transform="matrix(1.25 0 0 -1.25 629.3 911.01)">
   <path id="path8792" d="m0 0v-15.639c0-0.366 0.732-0.244 0.732 0.063v15.639c0 0.365-0.732 0.243-0.732-0.063" fill="#f26606"/>
  </g>
  <g id="g8794" transform="matrix(1.25 0 0 -1.25 627.07 912.13)">
   <path id="path8796" d="m0 0v-14.857c0-0.366 0.732-0.244 0.732 0.063v14.857c0 0.365-0.732 0.243-0.732-0.063" fill="#f26606"/>
  </g>
  <g id="g8798" transform="matrix(1.25 0 0 -1.25 639.21 933.63)">
   <path id="path8800" d="m0 0c0.404 0 0.565 0.502 0.072 0.502-0.404 0-0.565-0.502-0.072-0.502" fill="#0321f4"/>
  </g>
  <g id="g8802" transform="matrix(1.25 0 0 -1.25 624.83 914.26)">
   <path id="path8804" d="m0 0v-13.042c0-0.365 0.732-0.243 0.732 0.063v13.042c0 0.365-0.732 0.243-0.732-0.063" fill="#f26606"/>
  </g>
  <g id="g8806" transform="matrix(1.25 0 0 -1.25 607.18 920.69)">
   <path id="path8808" d="m0 0v-7.447c0-0.373 0.733-0.256 0.733 0.059v7.447c0 0.373-0.733 0.256-0.733-0.059" fill="#f26606"/>
  </g>
  <g id="g8810" transform="matrix(1.25 0 0 -1.25 622.6 914.19)">
   <path id="path8812" d="m0 0v-13.098c0-0.365 0.732-0.243 0.732 0.063v13.098c0 0.365-0.732 0.243-0.732-0.063" fill="#f26606"/>
  </g>
  <g id="g8814" transform="matrix(1.25 0 0 -1.25 605.06 921.36)">
   <path id="path8816" d="m0 0v-6.912c0-0.365 0.732-0.243 0.732 0.063v6.912c0 0.365-0.732 0.243-0.732-0.063" fill="#f26606"/>
  </g>
  <g id="g8818" transform="matrix(1.25 0 0 -1.25 620.37 913.63)">
   <path id="path8820" d="m0 0v-13.545c0-0.365 0.732-0.243 0.732 0.063v13.545c0 0.365-0.732 0.243-0.732-0.063" fill="#f26606"/>
  </g>
  <g id="g8822" transform="matrix(1.25 0 0 -1.25 618.13 914.12)">
   <path id="path8824" d="m0 0v-13.154c0-0.365 0.732-0.243 0.732 0.063v13.154c0 0.365-0.732 0.243-0.732-0.063" fill="#f26606"/>
  </g>
  <g id="g8826" transform="matrix(1.25 0 0 -1.25 615.85 915.06)">
   <path id="path8828" d="m0 0v-12.4c0-0.365 0.732-0.243 0.732 0.063v12.4c0 0.365-0.732 0.243-0.732-0.063" fill="#f26606"/>
  </g>
  <g id="g8830" transform="matrix(1.25 0 0 -1.25 613.62 917.12)">
   <path id="path8832" d="m0 0v-10.752c0-0.365 0.732-0.243 0.732 0.063v10.752c0 0.365-0.732 0.243-0.732-0.063" fill="#f26606"/>
  </g>
  <g id="g8834" transform="matrix(1.25 0 0 -1.25 611.49 920.61)">
   <path id="path8836" d="m0 0v-7.959c0-0.366 0.732-0.244 0.732 0.063v7.959c0 0.365-0.732 0.243-0.732-0.063" fill="#f26606"/>
  </g>
  <g id="g8838" transform="matrix(1.25 0 0 -1.25 609.32 920.33)">
   <path id="path8840" d="m0 0v-8.183c0-0.365 0.732-0.243 0.732 0.063v8.183c0 0.365-0.732 0.243-0.732-0.063" fill="#f26606"/>
  </g>
  <g id="g8842" transform="matrix(1.25 0 0 -1.25 603.05 923.3)">
   <path id="path8844" d="m0 0v-3.875c0-0.365 0.732-0.243 0.732 0.063v3.875c0 0.365-0.732 0.243-0.732-0.063" fill="#f26606"/>
  </g>
  <g id="g8846" transform="matrix(1.25 0 0 -1.25 631.99 910.41)">
   <path id="path8848" d="m0 0c-0.093-0.13 0-15.472 0-15.639 0-0.484 0.056-0.671 0.223-0.671 0.168 0 13.778-0.055 14.299 0 0.522 0.056 1.322 0.149 2.151 0.559 0.717 0.355 1.064 0.937 1.228 1.117 0.475 0.521 0.706 1.056 0.848 1.396 0.316 0.764 0.335 1.118 0.26 1.564-0.029 0.175-0.037 0.429-0.205 0.931-0.203 0.609-0.439 0.989-0.614 1.285-0.175 0.295-0.559 0.717-0.726 0.894-0.168 0.177-0.633 0.614-1.154 0.8-0.212 0.076-0.493 0.19-0.838 0.224-0.764 0.074-1.034 0-1.034 0s-0.251 0.018-0.726-0.056c-0.29-0.046-0.959-0.335-0.959-0.335l-0.828-0.391s-0.065 0.931-0.112 1.201c-0.046 0.27-0.363 1.396-0.363 1.396s-0.409 1.238-0.502 1.424c-0.205 0.41-0.724 1.306-0.801 1.415-0.223 0.317-0.677 0.906-0.847 1.099-0.363 0.409-0.531 0.651-1.006 0.977-0.474 0.326-1.2 0.717-1.508 0.866-0.307 0.149-1.312 0.485-1.619 0.558-0.55 0.131-1.044 0.159-1.332 0.187-0.577 0.055-1.275 0-1.601-0.019s-1.153-0.134-1.312-0.196c-0.457-0.176-0.829-0.456-0.922-0.586" fill="#f26606"/>
  </g>
  <g id="g8850" transform="matrix(1.25 0 0 -1.25 633.99 891.29)">
   <path id="path8852" d="m0 0c3.931-1.638 8.276-2.446 11.404-5.692-0.26-0.236-0.521-0.473-0.782-0.71-10.037 6.825-20.073 6.836-30.109-0.001l-0.784 0.711c2.953 3.104 7.157 3.839 10.771 5.692h9.5z" fill="#f26606"/>
  </g>
  <g id="g8854" transform="matrix(1.25 0 0 -1.25 653 903.16)">
   <path id="path8856" d="m0 0c3.234-3.135 4.076-7.463 5.691-11.405v-9.5c-1.848-3.616-2.594-7.815-5.69-10.772-0.237 0.261-0.475 0.522-0.712 0.784 6.854 10.036 6.854 20.072-0.002 30.108 0.238 0.262 0.475 0.523 0.713 0.785" fill="#f26606"/>
  </g>
  <g id="g8858" transform="matrix(1.25 0 0 -1.25 603.89 942.76)">
   <path id="path8860" d="m0 0c-7.676 9.062-7.676 22.605 0 31.679 0.239-0.263 0.477-0.527 0.716-0.79-6.841-10.033-6.838-20.066 0-30.099l-0.716-0.79z" fill="#f26606"/>
  </g>
  <g id="g8862" transform="matrix(1.25 0 0 -1.25 648.24 947.5)">
   <path id="path8864" d="m0 0c-9.057-7.673-22.591-7.673-31.669 0 0.267 0.238 0.535 0.477 0.802 0.715 10.022-6.849 20.043-6.85 30.065 0 0.267-0.238 0.535-0.477 0.802-0.715" fill="#f26606"/>
  </g>
  <g id="g8866" transform="matrix(1.25 0 0 -1.25 604.78 904.15)">
   <path id="path8868" d="m0 0c-0.239 0.264-0.477 0.527-0.716 0.791 0.974 1.563 2.244 2.83 3.808 3.801 0.262-0.237 0.523-0.474 0.784-0.711-1.292-1.293-2.584-2.587-3.876-3.881" fill="#f26606"/>
  </g>
  <g id="g8870" transform="matrix(1.25 0 0 -1.25 609.65 946.61)">
   <path id="path8872" d="m0 0c-0.267-0.238-0.535-0.477-0.802-0.715-1.552 0.982-2.846 2.224-3.811 3.796 0.238 0.263 0.477 0.526 0.716 0.79 1.299-1.291 2.598-2.581 3.897-3.871" fill="#f26606"/>
  </g>
  <g id="g8874" transform="matrix(1.25 0 0 -1.25 648.24 947.5)">
   <path id="path8876" d="m0 0c-0.267 0.238-0.535 0.477-0.802 0.715l3.899 3.866c0.238-0.262 0.475-0.523 0.713-0.785-0.964-1.573-2.258-2.813-3.81-3.796" fill="#f26606"/>
  </g>
  <g id="g8878" transform="matrix(1.25 0 0 -1.25 653 903.16)">
   <path id="path8880" d="m0 0c-0.238-0.262-0.475-0.523-0.713-0.785-1.291 1.293-2.583 2.586-3.875 3.879 0.261 0.236 0.522 0.473 0.783 0.71 1.562-0.974 2.836-2.236 3.805-3.804" fill="#f26606"/>
  </g>
 </g>
</svg>
