<?xml version="1.0" encoding="UTF-8" standalone="no"?>
<!-- Created with Inkscape (http://www.inkscape.org/) -->

<svg
   xmlns:dc="http://purl.org/dc/elements/1.1/"
   xmlns:cc="http://creativecommons.org/ns#"
   xmlns:rdf="http://www.w3.org/1999/02/22-rdf-syntax-ns#"
   xmlns:svg="http://www.w3.org/2000/svg"
   xmlns="http://www.w3.org/2000/svg"
   xmlns:sodipodi="http://sodipodi.sourceforge.net/DTD/sodipodi-0.dtd"
   xmlns:inkscape="http://www.inkscape.org/namespaces/inkscape"
   width="17.162041mm"
   height="17.162201mm"
   viewBox="0 0 60.81038 60.810949"
   id="svg45767"
   version="1.1"
   inkscape:version="0.91 r13725"
   sodipodi:docname="icon-twitter.svg">
  <defs
     id="defs45769" />
  <sodipodi:namedview
     id="base"
     pagecolor="#ffffff"
     bordercolor="#666666"
     borderopacity="1.0"
     inkscape:pageopacity="0.0"
     inkscape:pageshadow="2"
     inkscape:zoom="1"
     inkscape:cx="18.454451"
     inkscape:cy="10.061499"
     inkscape:document-units="px"
     inkscape:current-layer="layer1"
     showgrid="false"
     fit-margin-top="0"
     fit-margin-left="0"
     fit-margin-right="0"
     fit-margin-bottom="0"
     inkscape:window-width="545"
     inkscape:window-height="512"
     inkscape:window-x="10"
     inkscape:window-y="53"
     inkscape:window-maximized="0" />
  <metadata
     id="metadata45772">
    <rdf:RDF>
      <cc:Work
         rdf:about="">
        <dc:format>image/svg+xml</dc:format>
        <dc:type
           rdf:resource="http://purl.org/dc/dcmitype/StillImage" />
        <dc:title></dc:title>
      </cc:Work>
    </rdf:RDF>
  </metadata>
  <g
     inkscape:label="Layer 1"
     inkscape:groupmode="layer"
     id="layer1"
     transform="translate(-553.40269,-774.18418)">
    <g
       id="g8602"
       transform="matrix(1.25,0,0,-1.25,553.40269,798.50848)">
      <path
         d="m 0,0 c 1.806,3.456 2.435,7.533 5.464,10.343 0.227,-0.251 0.455,-0.501 0.682,-0.751 -6.561,-9.638 -6.563,-19.276 0,-28.914 -0.227,-0.25 -0.455,-0.5 -0.682,-0.75 C 2.434,-17.263 1.8,-13.188 0,-9.73 L 0,0 Z"
         style="fill:#00ccff;fill-opacity:1;fill-rule:nonzero;stroke:none"
         id="path8604"
         inkscape:connector-curvature="0" />
    </g>
    <g
       id="g8606"
       transform="matrix(1.25,0,0,-1.25,564.79869,781.01418)">
      <path
         d="m 0,0 c 2.8,3.046 6.889,3.653 10.342,5.464 l 9.122,0 c 3.77,-1.581 7.964,-2.314 10.951,-5.463 -0.25,-0.227 -0.5,-0.455 -0.75,-0.682 C 20.027,5.862 10.389,5.868 0.751,-0.682 0.501,-0.455 0.25,-0.227 0,0"
         style="fill:#00ccff;fill-opacity:1;fill-rule:nonzero;stroke:none"
         id="path8608"
         inkscape:connector-curvature="0" />
    </g>
    <g
       id="g8610"
       transform="matrix(1.25,0,0,-1.25,614.21307,810.67048)">
      <path
         d="m 0,0 c -1.8,-3.459 -2.424,-7.539 -5.463,-10.343 -0.227,0.25 -0.455,0.501 -0.682,0.751 6.558,9.638 6.562,19.275 -0.002,28.912 0.228,0.251 0.456,0.502 0.684,0.753 C -2.329,17.077 -1.559,12.903 0,9.122 L 0,0 Z"
         style="fill:#00ccff;fill-opacity:1;fill-rule:nonzero;stroke:none"
         id="path8612"
         inkscape:connector-curvature="0" />
    </g>
    <g
       id="g8614"
       transform="matrix(1.25,0,0,-1.25,602.81132,828.15388)">
      <path
         d="m 0,0 c -2.983,-3.155 -7.175,-3.893 -10.946,-5.473 l -9.122,0 c -3.457,1.803 -7.524,2.454 -10.338,5.473 0.254,0.227 0.508,0.454 0.761,0.682 9.628,-6.572 19.257,-6.574 28.885,0 C -0.507,0.455 -0.253,0.227 0,0"
         style="fill:#00ccff;fill-opacity:1;fill-rule:nonzero;stroke:none"
         id="path8616"
         inkscape:connector-curvature="0" />
    </g>
    <g
       id="g8618"
       transform="matrix(1.25,0,0,-1.25,607.38457,785.57978)">
      <path
         d="m 0,0 c -0.228,-0.251 -0.456,-0.502 -0.684,-0.753 -1.24,1.242 -2.479,2.483 -3.719,3.725 0.25,0.227 0.5,0.454 0.75,0.681 C -2.159,2.712 -0.938,1.498 0,0"
         style="fill:#00ccff;fill-opacity:1;fill-rule:nonzero;stroke:none"
         id="path8620"
         inkscape:connector-curvature="0" />
    </g>
    <g
       id="g8622"
       transform="matrix(1.25,0,0,-1.25,565.75494,827.30188)">
      <path
         d="m 0,0 c -0.253,-0.227 -0.507,-0.454 -0.76,-0.682 -1.486,0.948 -2.731,2.137 -3.658,3.645 0.228,0.25 0.455,0.5 0.682,0.75 C -2.491,2.475 -1.245,1.237 0,0"
         style="fill:#00ccff;fill-opacity:1;fill-rule:nonzero;stroke:none"
         id="path8624"
         inkscape:connector-curvature="0" />
    </g>
    <g
       id="g8626"
       transform="matrix(1.25,0,0,-1.25,602.81132,828.15388)">
      <path
         d="M 0,0 C -0.253,0.227 -0.507,0.455 -0.76,0.682 0.485,1.919 1.731,3.157 2.976,4.395 3.204,4.144 3.431,3.894 3.659,3.643 2.729,2.138 1.487,0.946 0,0"
         style="fill:#00ccff;fill-opacity:1;fill-rule:nonzero;stroke:none"
         id="path8628"
         inkscape:connector-curvature="0" />
    </g>
    <g
       id="g8630"
       transform="matrix(1.25,0,0,-1.25,564.79869,781.01418)">
      <path
         d="M 0,0 C 0.25,-0.227 0.501,-0.455 0.751,-0.682 -0.49,-1.923 -1.73,-3.163 -2.971,-4.404 -3.198,-4.153 -3.425,-3.903 -3.653,-3.653 -2.717,-2.154 -1.496,-0.94 0,0"
         style="fill:#00ccff;fill-opacity:1;fill-rule:nonzero;stroke:none"
         id="path8632"
         inkscape:connector-curvature="0" />
    </g>
    <g
       id="g8722"
       transform="matrix(1.25,0,0,-1.25,591.7267,792.40688)">
      <path
         d="m 0,0 c 0.162,0 0.325,0 0.487,0 0.389,-0.019 0.774,-0.069 1.155,-0.155 0.352,-0.079 0.695,-0.186 1.028,-0.321 0.34,-0.138 0.668,-0.302 0.985,-0.489 0.284,-0.166 0.56,-0.345 0.817,-0.55 0.094,-0.076 0.177,-0.08 0.284,-0.062 0.614,0.109 1.215,0.267 1.802,0.478 0.344,0.123 0.683,0.262 1.015,0.417 0.21,0.098 0.415,0.206 0.623,0.306 0.014,0.007 0.027,0.013 0.053,0.025 C 7.816,-1.646 6.907,-2.518 5.801,-3.226 6.912,-3.147 7.982,-2.886 9.036,-2.53 8.946,-2.637 8.858,-2.745 8.766,-2.851 8.049,-3.676 7.245,-4.406 6.334,-5.014 6.276,-5.052 6.218,-5.091 6.159,-5.127 6.128,-5.145 6.116,-5.167 6.117,-5.203 6.118,-5.311 6.119,-5.419 6.115,-5.526 6.103,-5.799 6.094,-6.073 6.074,-6.345 5.976,-7.708 5.714,-9.038 5.273,-10.332 4.734,-11.91 3.956,-13.36 2.94,-14.682 c -0.482,-0.628 -1.01,-1.214 -1.583,-1.76 -0.985,-0.937 -2.073,-1.736 -3.259,-2.4 -1.394,-0.781 -2.87,-1.35 -4.423,-1.722 -0.597,-0.143 -1.2,-0.253 -1.81,-0.331 -0.291,-0.037 -0.582,-0.069 -0.875,-0.094 -0.216,-0.018 -0.432,-0.029 -0.648,-0.042 -0.125,-0.008 -0.25,-0.004 -0.375,-0.011 -0.292,0 -0.585,0 -0.877,0 -3.094,0.079 -5.982,0.904 -8.687,2.396 0.101,-0.004 0.203,-0.007 0.304,-0.014 0.466,-0.03 0.933,-0.028 1.399,-0.02 0.198,0.003 0.395,0.009 0.592,0.024 0.595,0.048 1.189,0.113 1.777,0.224 0.671,0.126 1.328,0.298 1.971,0.527 0.932,0.333 1.808,0.776 2.616,1.349 0.023,0.016 0.045,0.033 0.08,0.059 -0.149,0.018 -0.282,0.032 -0.414,0.05 -1.075,0.144 -2.096,0.439 -2.995,1.072 -0.643,0.452 -1.143,1.031 -1.531,1.712 -0.148,0.259 -0.276,0.528 -0.388,0.805 -0.01,0.022 -0.014,0.046 -0.021,0.07 0.002,0.002 0.004,0.004 0.006,0.006 0.147,-0.03 0.293,-0.063 0.441,-0.088 0.691,-0.117 1.37,-0.084 2.034,0.156 0.019,0.006 0.038,0.014 0.056,0.022 0.006,0.003 0.012,0.006 0.028,0.015 -0.111,0.024 -0.214,0.045 -0.316,0.068 -0.98,0.223 -1.862,0.641 -2.609,1.324 -0.821,0.751 -1.331,1.679 -1.563,2.764 -0.072,0.334 -0.11,0.671 -0.12,1.013 -0.001,0.021 0,0.043 0,0.074 0.852,-0.376 1.741,-0.564 2.663,-0.626 -0.098,0.073 -0.196,0.145 -0.292,0.22 -0.61,0.473 -1.162,1.003 -1.598,1.644 -0.397,0.584 -0.664,1.22 -0.756,1.922 -0.086,0.654 -0.019,1.297 0.165,1.929 0.141,0.482 0.338,0.94 0.577,1.385 0.045,-0.045 0.089,-0.086 0.13,-0.13 0.915,-0.98 1.931,-1.842 3.054,-2.576 1.098,-0.717 2.267,-1.289 3.5,-1.734 0.982,-0.355 1.987,-0.623 3.012,-0.82 0.53,-0.103 1.063,-0.187 1.6,-0.248 0.269,-0.031 0.539,-0.057 0.808,-0.088 0.052,-0.006 0.038,0.018 0.028,0.046 -0.086,0.257 -0.146,0.521 -0.183,0.791 -0.035,0.261 -0.051,0.524 -0.03,0.785 0.082,1.041 0.477,1.957 1.142,2.756 0.853,1.026 1.939,1.684 3.229,2.009 0.339,0.085 0.683,0.143 1.034,0.156 C -0.112,-0.011 -0.056,-0.002 0,0"
         style="fill:#00ccff;fill-opacity:1;fill-rule:nonzero;stroke:none"
         id="path8724"
         inkscape:connector-curvature="0" />
    </g>
    <g
       id="g8726"
       transform="matrix(1.25,0,0,-1.25,569.14357,807.63188)">
      <path
         d="M 0,0 C -0.001,0.004 -0.002,0.007 -0.004,0.011 0,0.009 0.003,0.008 0.006,0.006 0.004,0.004 0.002,0.002 0,0"
         style="fill:#00ccff;fill-opacity:1;fill-rule:nonzero;stroke:none"
         id="path8728"
         inkscape:connector-curvature="0" />
    </g>
  </g>
</svg>
